<?xml version="1.0" encoding="utf-8"?>
<!-- Generator: Adobe Illustrator 21.0.2, SVG Export Plug-In . SVG Version: 6.00 Build 0)  -->
<svg version="1.1" id="Layer_1" xmlns="http://www.w3.org/2000/svg" xmlns:xlink="http://www.w3.org/1999/xlink" x="0px" y="0px"
	 viewBox="0 0 412.7 412.7" style="enable-background:new 0 0 412.7 412.7;" xml:space="preserve">
<style type="text/css">
	.st0{fill:#416326;}
	.st1{fill:#FFFFFF;}
</style>
<g>
	<path class="st1" d="M146.4,357.3c-4.1,0-7.7,0-11.8,0c0-8.3,0-16.6,0-25.5c3.6,0,7.5,0,11.8,0
		C146.4,340.2,146.4,348.7,146.4,357.3z"/>
	<path class="st0" d="M193.8,110c3.9-1,7.3-0.3,9.4,4.8c-2.7,9.5-11.2,15.8-21.6,16.5c-11.4,0.8-20.9-5-25.8-16.3
		c0.5-3.4,3.5-7.7,9.3-4.7C177.9,121.6,183.2,121.5,193.8,110z"/>
	<circle class="st0" cx="199.7" cy="88.6" r="7.8"/>
	<circle class="st0" cx="160.5" cy="88.6" r="7.8"/>
	<path class="st0" d="M138.2,291.6h12.4c0,0,10.4-1.3,10.4,4.3c0,6.3,0,27.3,0,27.3h-14.4v-20h-8.1L138.2,291.6z"/>
	<path class="st0" d="M409.7,181.2c-3.4-30.7-6.8-61.5-10.7-92.1c-3.2-24.9-14.9-34.4-40.3-34c-19.2,0.3-31.1,16-26.6,34.6
		c3.1,12.9,11.6,20.5,24.3,24.4c-2.6,18.1-5.1,35.6-7.8,54.3c-18.8-12.1-36.4-9.3-54,0.9c-1.8,1.1-5.7,0.1-7.9-1.1
		c-15.8-8.9-32.1-10.4-48.9-3.4c-5,2.1-9.8,4.8-14.8,7.1c-8,3.7-22.5-6.5-21.6-15.3c0.1-1.1,1.2-2.4,2.2-3.1
		c16.4-10.7,25.1-26.3,28.6-45.1c1.3-0.3,2.3-0.5,3.4-0.7c11.2-2,19-8.2,22.1-19.3c3.1-10.9-0.7-19.7-8.7-27.3
		c-1.7-1.6-2.8-4.4-3.1-6.8c-0.5-4-0.1-8.2-0.2-12.3c-0.5-22-17.2-38.9-39.3-39.2c-17.8-0.3-35.6-0.3-53.4,0
		c-19.6,0.3-35.8,14.7-38.4,33.9c-0.7,5.1,0.2,10.5-0.6,15.6c-0.5,3.4-1.9,7.2-4.2,9.6c-7.3,7.5-10.6,16-8,26.2
		c2.6,10.1,9.3,17,19.5,18.9c5.5,1.1,6.7,3.7,7.7,8.4c3.1,14.4,10.6,26.3,22.5,35.2c8.2,6.1,8.9,8.9,1.4,16
		c-3.8,3.6-9.7,6.3-14.9,6.7c-11.4,1-23,0-34.5,0.4c-8.4,0.3-17.2,0.3-25.1,2.7C47.3,185.7,33.2,221,47,252.7
		c1.1,2.5,2.1,5.7,1.6,8.2c-2.2,10.1-5.1,20-7.9,30.8c-7.1,0-15-0.1-22.9,0c-10.2,0.1-15.2,4.9-15.2,15.1c-0.1,24.9-0.1,49.8,0,74.8
		c0,10.6,5,15.3,15.8,15.3c11,0.1,21.9-0.4,32.9,0.2c3.8,0.2,8.2,2.1,11,4.7c10.1,9.6,25.4,12,34.8,2.4c7-7.1,14.1-7.7,22.6-7.4
		c6.8,0.3,13.7-0.4,20.5,0.2c10.5,0.8,18.4-1.9,20.8-13.2c28.6,0,56.6,0,84.5,0c16.7,0,20-3.4,20-20.3c0-32.6,0-65.1,0-97.4
		c7.1-2.8,14.2-4.6,20.1-8.3c5.5-3.4,10-3.5,15.9-1.4c24.1,8.3,45.7,4.8,64-14.2c2.2-2.3,6-3.4,9.3-4.1c11.6-2.5,20.7-8.4,27.2-18.2
		C409.6,208,411.2,194.8,409.7,181.2z M232.9,68.2c8.1,1.5,12.6,5.8,12.5,13.3c-0.1,7.4-4.4,11.8-12.5,12.9
		C232.9,85.6,232.9,77.3,232.9,68.2z M127.2,93.6c-8-0.4-12.5-4.5-12.9-11.5c-0.4-7.1,3.7-11.6,12.9-13.6
		C127.2,77.2,127.2,85.4,127.2,93.6z M127.7,56.5c0-8-0.6-13.5,0.1-18.8c1.7-12.4,12.2-21.7,24.9-22c18.1-0.3,36.1-0.4,54.2,0
		c14.1,0.3,24.8,11.1,25.5,25c0.2,4.6,0,9.2,0,16c-4.5-2.3-8-3.4-10.6-5.6c-10.5-8.9-21.5-12-34.9-6.3c-4,1.7-10,1.8-13.9,0.1
		c-13.6-5.9-24.9-2.8-35.6,6.5C135.2,53.6,131.8,54.5,127.7,56.5z M140.7,105c-0.3-5.2-0.1-10.4-0.1-15.6c0,0-0.1,0-0.1,0
		c0-4.9-0.2-9.9,0-14.8c0.7-14.3,14.3-22.8,27.3-17.1c8,3.5,15.8,3.6,23.8,0.1c12.2-5.3,26.1,1.4,27.1,14.3c1,13.3-0.5,26.7-1,40.1
		c0,0.5-0.2,1.1-0.3,1.6c-5.7,20.3-23.6,35-40.5,33.3C158.5,145.1,142.1,126.2,140.7,105z M147.4,186.4c0,0,11.6-3.7,15-6.6
		c2.3-6.1,6.1-15.5,7.3-17c0.9-1,2.2-1.8,3.8-2.4c0.5-0.2,1-0.4,1.6-0.5c1.5-0.3,3.1-0.5,5-0.6v0c0,0,0.1,0,0.1,0c0,0,0.1,0,0.1,0v0
		c4.9,0,8.5,1.3,10.4,3.4c0.8,1,2.7,5.4,4.6,10.1c0.8,1.2,1.5,2.4,1.9,3.8c0.3,0,0.4,0,0.4,0s10.2,8,13.9,9.4
		c0.3,0.1,0.6,0.1,0.9,0.2c2.5,0,10.6,40-32.9,40.5S147.4,186.4,147.4,186.4z M59.2,355.9c-1.7,8.8-3.5,17.6-5.5,27.5
		c-12,0-24.4,0-37.5,0c0-25.9,0-51.7,0-78c8.3,0,16.7,0,23.3,0c6.8,15.1,13.4,29.6,19.7,44.2C60,351.4,59.6,353.8,59.2,355.9z
		 M96.4,260.1c-1.6,4.4-1,9.6-1.1,14.4c-0.6,19.1,0.5,38.4-2.2,57.2c-1.8,12.6-5.4,24.4-0.3,37c1.7,4.1,1.6,9.1,1.6,13.8
		c0.1,8.7-5.5,14.6-13.3,14.5c-7.4-0.1-13.3-5.9-12.7-14.1c0.7-8.9,2.4-17.8,5-26.4c1.4-4.7,1.4-7.7-1.4-11.8
		c-13.1-19.4-20.6-40.4-15.3-64.3c0.8-3.4,1.7-6.7,2.7-10.3c7,3.1,8.1,3.4,15,6.4c1.3-4.7,3-8.4,4.1-12.2
		c-23.5-11.7-27.5-25.1-22.3-46.9c4.4-18.5,19.8-30.7,39.4-30.5C99.4,211.2,105.2,235.4,96.4,260.1z M146.7,383.2
		c-12.7,0-25.4,0-37.8,0c-2.1-10-4.1-19.4-5.9-28.7c-0.4-2.1-0.4-4.3-0.1-6.4c2.5-13.9,5.2-27.8,8-42.6c10.8,0,22.9,0,35.6,0
		c0,3.9,0,7.8,0,12.3c-8.3,0-16.5,0-25.2,0c0,17.7,0,34.7,0,52.7c8.3,0,16.6,0,25.3,0C146.7,375.1,146.7,378.9,146.7,383.2z
		 M251.9,370.6c-2.8,0-4.7,0-6.6,0c-27.9,0-55.8,0-84.4,0c0-17.2,0-34.3,0-51.7c-5.4-0.8-9.3-2.1-10.8-4c-2.3-2.9-3.8-10.9-4.8-22.3
		c-2.2,0.1-4-1-5.9-1c-9.8,0-19.6,0-31.6,0c1.2-12.4,0.9-24.1,3.6-35.2c5-21.2,1.9-41.8-1.1-62.7c-0.3-2.1-0.7-4.3-1-6.9
		c8.2,0,16,0,24.7,0c0,4.4-0.1,8.5,0,12.5c1.5,15.4,9.5,39.3,44.4,39.3c53.7-0.3,47.3-50,47.3-50l0.4,0.9c0.2-2.2,0.7-4,1.8-4.8
		c6.6-5.1,15.2-7.7,24-11.9C251.9,240,251.9,304.8,251.9,370.6z M363,226c-1.4,0.2-3,1-4,2.1c-18.6,20.7-32,24.1-58.1,14.2
		c-3.3-1.3-6.5-2.7-8.8-3.7c-9.2,5-17.1,9.4-26.3,14.4c0-27.6,0-52.7,0-80.6c9.7,5.5,18,10.1,25.4,14.3c8.2-4.1,16.5-8.7,25.2-12.2
		c3.8-1.5,8.7-1.4,12.9-0.6c13.3,2.5,16.7,8,15.6,24.6c3.8,0.6,7.6,1.1,12.5,1.9c4.7-33.2,9.4-65.8,14.2-99
		c-4.1-0.2-7.3-0.2-10.5-0.6c-10.3-1.2-17.6-9.6-16.4-19.9c0.4-3.6,2.7-8.1,5.6-10.2c12.2-9,33.1-0.5,35,14.3
		c4.2,33.1,8.3,66.2,11.3,99.4C399,210.7,389.4,221.7,363,226z"/>
</g>
</svg>
