<svg id="Layer_2" data-name="Layer 2" xmlns="http://www.w3.org/2000/svg" viewBox="0 0 50 50"><defs><style>.cls-1{fill:#416326;}.cls-1,.cls-2{fill-rule:evenodd;}.cls-2{fill:#fff;}</style></defs><title>Untitled-1</title><path class="cls-1" d="M1,37.66c.24-2.18,1.4-4,2.46-5.81.9-1.55,1.8-3.11,2.69-4.66Q11.81,17.4,17.47,7.61a8.64,8.64,0,0,1,6.07-4.42,8.37,8.37,0,0,1,8.39,3.48c1.7,2.73,3.27,5.54,4.88,8.32q4.9,8.47,9.79,16.95c1,1.81,2.19,3.57,2.4,5.72v1.41a17,17,0,0,1-.76,2.68,8.39,8.39,0,0,1-8.13,5.19c-2.5,0-5,0-7.5,0H9.76A8.42,8.42,0,0,1,1.45,41c-.2-.6-.3-1.24-.45-1.85Zm23.93,5.41H40.11a4.81,4.81,0,0,0,3.67-1.45,4.68,4.68,0,0,0,.59-5.79L32.16,14.67C31.06,12.77,30,10.84,28.83,9a4.3,4.3,0,0,0-4.26-2,4.59,4.59,0,0,0-3.72,2.51q-6,10.38-12,20.75c-1.18,2-2.4,4.06-3.5,6.14A4.33,4.33,0,0,0,5.65,41a4.63,4.63,0,0,0,4.19,2.12Z"/><path class="cls-2" d="M24.93,43.07H9.84A4.63,4.63,0,0,1,5.65,41a4.33,4.33,0,0,1-.28-4.59c1.1-2.08,2.32-4.1,3.5-6.14q6-10.38,12-20.75A4.59,4.59,0,0,1,24.57,7a4.3,4.3,0,0,1,4.26,2c1.18,1.86,2.23,3.79,3.33,5.69L44.38,35.83a4.68,4.68,0,0,1-.59,5.79,4.81,4.81,0,0,1-3.67,1.45ZM27.43,19.6c0-.3,0-.57,0-.83a2.43,2.43,0,0,0-2.12-2.22,2.61,2.61,0,0,0-2.82,3c.17,2.46.3,4.92.46,7.38.08,1.26.12,2.52.26,3.78A1.73,1.73,0,0,0,25,32.21a1.8,1.8,0,0,0,1.8-1.53,12.44,12.44,0,0,0,.07-1.3ZM22.55,36.34A2.46,2.46,0,0,0,25,38.82a2.46,2.46,0,0,0,0-4.91A2.47,2.47,0,0,0,22.55,36.34Z"/><path class="cls-1" d="M27.43,19.6l-.57,9.78a12.44,12.44,0,0,1-.07,1.3A1.8,1.8,0,0,1,25,32.21a1.73,1.73,0,0,1-1.79-1.52c-.14-1.26-.18-2.52-.26-3.78-.15-2.46-.29-4.92-.46-7.38a2.61,2.61,0,0,1,2.82-3,2.43,2.43,0,0,1,2.12,2.22C27.45,19,27.43,19.3,27.43,19.6Z"/><path class="cls-1" d="M22.55,36.34A2.47,2.47,0,0,1,25,33.91a2.46,2.46,0,0,1,0,4.91A2.46,2.46,0,0,1,22.55,36.34Z"/></svg>