<svg id="Layer_2" data-name="Layer 2" xmlns="http://www.w3.org/2000/svg" viewBox="0 0 50 50"><defs><style>.cls-1{fill:#416326;}.cls-1,.cls-2{fill-rule:evenodd;}.cls-2{fill:#fff;}</style></defs><title>Untitled-1</title><path class="cls-1" d="M25,1A24,24,0,1,1,1,25.05,24.07,24.07,0,0,1,25,1ZM5.37,25A19.63,19.63,0,1,0,24.89,5.37,19.64,19.64,0,0,0,5.37,25Z"/><path class="cls-2" d="M5.37,25A19.63,19.63,0,1,1,25,44.63,19.66,19.66,0,0,1,5.37,25Zm17.46-4.32c0,2.88,0,5.76,0,8.64a2.17,2.17,0,1,0,4.34-.09q0-6.95,0-13.9,0-1.69,0-3.37a2.17,2.17,0,0,0-3.06-2,2,2,0,0,0-1.28,2Q22.82,16.28,22.83,20.65Zm0,15.25A2.17,2.17,0,1,0,25,33.72,2.17,2.17,0,0,0,22.83,35.9Z"/><path class="cls-1" d="M22.83,20.65q0-4.37,0-8.74a2,2,0,0,1,1.28-2,2.17,2.17,0,0,1,3.06,2q0,1.68,0,3.37,0,6.95,0,13.9a2.17,2.17,0,1,1-4.34.09C22.82,26.41,22.83,23.53,22.83,20.65Z"/><path class="cls-1" d="M22.83,35.9A2.17,2.17,0,1,1,25,38.09,2.18,2.18,0,0,1,22.83,35.9Z"/></svg>