<svg xmlns="http://www.w3.org/2000/svg" version="1.0" preserveAspectRatio="xMidYMid meet" viewBox="3.11 6.21 93.81 74.88">

<g transform="translate(0.000000,100.000000) scale(0.100000,-0.100000)" stroke="none">
<path d="M520 911 c0 -21 5 -31 16 -31 11 0 14 8 12 27 -4 39 -28 42 -28 4z"/>
<path d="M410 862 c0 -12 23 -32 37 -32 18 0 16 27 -3 34 -21 8 -34 8 -34 -2z"/>
<path d="M613 863 c-15 -5 -18 -33 -4 -33 21 0 41 13 41 26 0 14 -14 17 -37 7z"/>
<path d="M485 804 c-8 -20 -15 -47 -15 -60 l0 -24 -175 0 c-268 0 -267 1 -263 -277 l3 -188 59 -3 c50 -3 62 -7 83 -33 34 -40 82 -40 116 1 l26 30 195 0 c164 0 196 -2 196 -14 0 -21 40 -46 73 -46 19 0 38 10 56 29 22 24 38 30 77 33 l49 3 3 75 c4 112 2 117 -69 137 l-60 16 -55 104 c-31 56 -65 110 -77 118 -12 8 -43 15 -69 15 -45 0 -48 2 -48 25 0 14 -7 41 -14 60 -13 29 -20 35 -45 35 -26 0 -33 -6 -46 -36z m63 -12 c2 -7 -3 -12 -12 -12 -9 0 -16 7 -16 16 0 17 22 14 28 -4z m12 -57 c0 -10 -10 -15 -30 -15 -20 0 -30 5 -30 15 0 10 10 15 30 15 20 0 30 -5 30 -15z m-152 -187 l3 -138 -41 0 -41 0 20 26 c15 20 21 41 21 80 0 45 -5 59 -31 89 -55 62 -145 66 -203 9 -49 -50 -54 -137 -10 -185 16 -18 15 -19 -24 -19 l-42 0 0 105 c0 111 9 147 44 163 12 7 79 10 161 9 l140 -2 3 -137z m212 32 l0 -110 -90 0 -90 0 0 110 0 110 90 0 90 0 0 -110z m80 90 c30 -30 26 -50 -10 -50 -28 0 -30 3 -30 35 0 40 11 44 40 15z m-389 -79 c23 -24 29 -38 29 -74 0 -37 -6 -51 -31 -76 -25 -25 -39 -31 -76 -31 -36 0 -50 6 -74 29 -42 42 -42 110 0 152 24 24 38 29 76 29 38 0 52 -5 76 -29z m459 -48 c14 -27 26 -51 28 -55 2 -5 -28 -8 -67 -8 l-71 0 0 55 0 55 43 0 c41 0 44 -2 67 -47z m145 -113 c23 -10 26 -14 13 -17 -22 -6 -24 -43 -2 -43 33 0 5 -25 -32 -28 -21 -2 -44 -8 -50 -13 -8 -7 -14 -6 -19 1 -17 28 -115 -2 -115 -36 0 -8 -10 -14 -25 -14 -25 0 -25 1 -25 86 l0 86 113 -4 c61 -3 126 -11 142 -18z m-295 -5 c0 -12 -17 -15 -90 -15 -73 0 -90 3 -90 15 0 12 17 15 90 15 73 0 90 -3 90 -15z m-212 -67 c-4 -10 -47 -13 -173 -13 -126 0 -169 3 -172 13 -4 9 35 12 172 12 137 0 176 -3 173 -12z m212 -33 l0 -45 -90 0 -90 0 0 45 0 45 90 0 90 0 0 -45z m-456 -30 c-9 -21 -104 -21 -104 0 0 12 13 15 55 15 44 0 53 -3 49 -15z m104 3 c15 -15 15 -51 0 -66 -15 -15 -51 -15 -66 0 -15 15 -15 51 0 66 7 7 21 12 33 12 12 0 26 -5 33 -12z m142 -3 c0 -11 -12 -15 -49 -15 -34 0 -51 4 -55 15 -4 12 5 15 49 15 42 0 55 -3 55 -15z m410 -5 c15 -28 3 -59 -25 -66 -44 -11 -74 29 -49 64 19 28 60 29 74 2z m120 5 c0 -11 -11 -15 -40 -15 -29 0 -40 4 -40 15 0 11 11 15 40 15 29 0 40 -4 40 -15z"/>
<path d="M481 646 c-7 -9 -11 -40 -9 -78 l3 -63 55 0 55 0 3 69 c2 49 -1 72 -10 77 -21 14 -85 10 -97 -5z m79 -71 c0 -43 -1 -45 -30 -45 -29 0 -30 2 -30 45 0 43 1 45 30 45 29 0 30 -2 30 -45z"/>
<path d="M190 575 c0 -8 -7 -15 -15 -15 -11 0 -15 -12 -15 -45 0 -33 4 -45 15 -45 8 0 15 -7 15 -15 0 -11 12 -15 45 -15 33 0 45 4 45 15 0 8 7 15 15 15 11 0 15 12 15 45 0 33 -4 45 -15 45 -8 0 -15 7 -15 15 0 11 -12 15 -45 15 -33 0 -45 -4 -45 -15z m70 -35 c11 -11 20 -22 20 -25 0 -7 -38 -45 -45 -45 -7 0 -45 38 -45 45 0 8 34 43 43 44 4 1 16 -8 27 -19z"/>
<path d="M700 405 c0 -10 11 -15 35 -15 24 0 35 5 35 15 0 10 -11 15 -35 15 -24 0 -35 -5 -35 -15z"/>
<path d="M220 265 c0 -8 7 -15 15 -15 8 0 15 7 15 15 0 8 -7 15 -15 15 -8 0 -15 -7 -15 -15z"/>
<path d="M762 268 c7 -19 38 -22 38 -4 0 10 -9 16 -21 16 -12 0 -19 -5 -17 -12z"/>
</g>
</svg>