<svg id="Layer_2" data-name="Layer 2" xmlns="http://www.w3.org/2000/svg" viewBox="0 0 50 50"><defs><style>.cls-1{fill:#fff;}.cls-2{fill:#416326;}</style></defs><title>Untitled-1</title><path class="cls-1" d="M42.34,13a14.15,14.15,0,0,0-7.74-7.3,21.89,21.89,0,0,0-6.49-1.52A27.17,27.17,0,0,0,15.5,5.66,14.07,14.07,0,0,0,8.21,12,18.93,18.93,0,0,0,6,19.29c-.09.8-.12,1.6-.18,2.42H7.47a23.9,23.9,0,0,1,1.81-6.27A14.6,14.6,0,0,1,17.51,7.5,21.8,21.8,0,0,1,29.85,6.7,14.6,14.6,0,0,1,38.68,12a18.75,18.75,0,0,1,3.47,7.59c.16.69.29,1.39.43,2.08h1.62c0-.38-.05-.72-.07-1.06A20.55,20.55,0,0,0,42.34,13Z"/><path class="cls-1" d="M37.89,22.9a20.89,20.89,0,0,0-6.49-2c-.34-.06-.69-.09-1.13-.14a6.31,6.31,0,0,1,1.23,2.43,14.87,14.87,0,0,0-1.45-.7c-1.17-.43-2.34-.85-3.54-1.21a13.78,13.78,0,0,1-7.86-5.71c-.09-.13-.2-.25-.36-.45,0,.33-.08.55-.09.76a10.14,10.14,0,0,1-1,4,9.51,9.51,0,0,1-6.78,5.65c-.29.06-.36.2-.37.47a21.85,21.85,0,0,0,.53,6.13A3.73,3.73,0,0,0,12,34.54c.54.37,1.06.78,1.62,1.1a16.36,16.36,0,0,0,7,1.8.46.46,0,0,0,.35-.15c1.32-1.76,4.57-2,6.5-.75a2.37,2.37,0,0,1,.25,4,4.05,4.05,0,0,1-2.07.91,4.7,4.7,0,0,1-4.79-1.62.66.66,0,0,0-.4-.16c-1.05-.14-2.12-.2-3.15-.43-1.3-.28-2.58-.69-3.83-1A18.42,18.42,0,0,0,21.93,45a8.58,8.58,0,0,0,6.48-.13,18.42,18.42,0,0,0,10.1-10A19.15,19.15,0,0,0,40,26.18C39.88,24.05,39.77,23.89,37.89,22.9ZM18.79,29.8a2.45,2.45,0,1,1,2.46-2.43A2.47,2.47,0,0,1,18.79,29.8Zm12.41,0a2.45,2.45,0,1,1,2.51-2.42A2.46,2.46,0,0,1,31.2,29.8Z"/><path class="cls-2" d="M47.15,22.51a1,1,0,0,1-.41-.8,25.14,25.14,0,0,0-1.26-7.78A17.14,17.14,0,0,0,34,2.74a30.63,30.63,0,0,0-12.36-1.1,23.79,23.79,0,0,0-6.86,1.58A17.18,17.18,0,0,0,4.22,15a26.11,26.11,0,0,0-.93,6.75.8.8,0,0,1-.4.76,3.79,3.79,0,0,0-1.81,3,45.49,45.49,0,0,0,0,5.48,4.16,4.16,0,0,0,4.36,3.93c.84,0,1.69,0,2.53,0a.48.48,0,0,1,.55.36,21.41,21.41,0,0,0,4.76,7.49,18.85,18.85,0,0,0,9.3,5.49,11.49,11.49,0,0,0,7.23-.74A21.17,21.17,0,0,0,41.38,35.57c.2-.49.41-.69,1-.66a21,21,0,0,0,2.9-.06,4.13,4.13,0,0,0,3.68-3.45c0-.1.05-.2.08-.31V25.37A6.83,6.83,0,0,0,48.45,24,6.91,6.91,0,0,0,47.15,22.51ZM38.51,34.82a18.42,18.42,0,0,1-10.1,10,8.58,8.58,0,0,1-6.48.13,18.42,18.42,0,0,1-8.5-6.73c1.25.34,2.53.76,3.83,1,1,.22,2.1.28,3.15.43a.66.66,0,0,1,.4.16,4.7,4.7,0,0,0,4.79,1.62,4.05,4.05,0,0,0,2.07-.91,2.37,2.37,0,0,0-.25-4c-1.93-1.29-5.19-1-6.5.75a.46.46,0,0,1-.35.15,16.36,16.36,0,0,1-7-1.8c-.57-.32-1.08-.73-1.62-1.1a3.73,3.73,0,0,1-1.39-2.46A21.85,21.85,0,0,1,10.07,26c0-.28.08-.41.37-.47a9.51,9.51,0,0,0,6.78-5.65,10.14,10.14,0,0,0,1-4c0-.21,0-.43.09-.76.16.2.28.32.36.45a13.78,13.78,0,0,0,7.86,5.71c1.19.37,2.37.78,3.54,1.21a14.87,14.87,0,0,1,1.45.7,6.31,6.31,0,0,0-1.23-2.43c.44.05.79.08,1.13.14a20.89,20.89,0,0,1,6.49,2c1.89,1,2,1.16,2.09,3.28A19.15,19.15,0,0,1,38.51,34.82Zm4.08-13.13c-.14-.69-.27-1.39-.43-2.08A18.75,18.75,0,0,0,38.68,12,14.6,14.6,0,0,0,29.85,6.7a21.8,21.8,0,0,0-12.35.79,14.6,14.6,0,0,0-8.24,7.94A23.9,23.9,0,0,0,7.47,21.7H5.82c.06-.81.1-1.62.18-2.42A18.93,18.93,0,0,1,8.21,12,14.07,14.07,0,0,1,15.5,5.66,27.17,27.17,0,0,1,28.12,4.17,21.89,21.89,0,0,1,34.6,5.69,14.15,14.15,0,0,1,42.34,13a20.55,20.55,0,0,1,1.79,7.65c0,.34,0,.68.07,1.06Z"/><path class="cls-2" d="M18.78,24.9a2.45,2.45,0,1,0,2.47,2.47A2.48,2.48,0,0,0,18.78,24.9Z"/><path class="cls-2" d="M31.3,24.9a2.45,2.45,0,1,0,2.41,2.48A2.47,2.47,0,0,0,31.3,24.9Z"/></svg>