<svg id="Layer_2" data-name="Layer 2" xmlns="http://www.w3.org/2000/svg" viewBox="0 0 50 50"><defs><style>.cls-1{fill:#fcfdf8;}.cls-2{fill:#416326;}</style></defs><title>Untitled-1</title><path class="cls-1" d="M42.77,4.67A8.15,8.15,0,0,0,39,6.9L27.56,18.3a3.62,3.62,0,0,1-5.11,0L11.06,6.88A8.18,8.18,0,0,0,7.27,4.64,2.44,2.44,0,0,0,5,5a2.43,2.43,0,0,0-.35,2.25A8.12,8.12,0,0,0,6.91,11L18.3,22.44a3.61,3.61,0,0,1,0,5.11L6.88,38.94a8.12,8.12,0,0,0-2.24,3.79A2.43,2.43,0,0,0,5,45c1,1,3.77.38,6-1.89L22.44,31.7a3.62,3.62,0,0,1,5.11,0L38.94,43.12C41.21,45.39,44,46,45,45s.38-3.77-1.88-6L31.7,27.56a3.61,3.61,0,0,1,0-5.11L43.12,11.06a8.16,8.16,0,0,0,2.24-3.79A2.43,2.43,0,0,0,45,5,2.43,2.43,0,0,0,42.77,4.67Z"/><path class="cls-2" d="M48.81,8a5.83,5.83,0,0,0-1.29-5.51A5.82,5.82,0,0,0,42,1.22,11.57,11.57,0,0,0,36.47,4.4L25.06,15.79,26.31,17,25,15.79,13.56,4.38A11.61,11.61,0,0,0,8,1.19,5.83,5.83,0,0,0,2.52,2.48,5.83,5.83,0,0,0,1.22,8,11.56,11.56,0,0,0,4.4,13.53L15.79,25,4.38,36.44A11.56,11.56,0,0,0,1.19,42a5.83,5.83,0,0,0,1.29,5.51C5,50,9.9,49.22,13.53,45.6L25,34.21,36.44,45.62A10.58,10.58,0,0,0,43.63,49a5.32,5.32,0,0,0,3.85-1.48C50,45,49.22,40.1,45.6,36.47L34.21,25,45.62,13.56A11.59,11.59,0,0,0,48.81,8Zm-3.45-.77a8.16,8.16,0,0,1-2.24,3.79L31.71,22.45a3.61,3.61,0,0,0,0,5.11L43.09,39C45.36,41.24,46,44,45,45s-3.77.37-6-1.9L27.55,31.71a3.62,3.62,0,0,0-5.11,0L11,43.09C8.76,45.36,6,46,5,45a2.43,2.43,0,0,1-.35-2.25,8.12,8.12,0,0,1,2.24-3.79L18.29,27.55a3.61,3.61,0,0,0,0-5.11L6.91,11A8.12,8.12,0,0,1,4.67,7.23,2.43,2.43,0,0,1,5,5a2.44,2.44,0,0,1,2.25-.35,8.18,8.18,0,0,1,3.79,2.24L22.45,18.29a3.62,3.62,0,0,0,5.11,0L39,6.9a8.15,8.15,0,0,1,3.8-2.23A2.43,2.43,0,0,1,45,5,2.43,2.43,0,0,1,45.36,7.27Z"/></svg>