<?xml version="1.0" encoding="utf-8"?>
<!-- Generator: Adobe Illustrator 21.0.2, SVG Export Plug-In . SVG Version: 6.00 Build 0)  -->
<svg version="1.1" id="Layer_1" xmlns="http://www.w3.org/2000/svg" xmlns:xlink="http://www.w3.org/1999/xlink" x="0px" y="0px"
	 viewBox="0 0 460 434" style="enable-background:new 0 0 460 434;" xml:space="preserve">
<style type="text/css">
	.st0{fill:#416326;}
</style>
<g>
	<g>
		<path class="st0" d="M195.4,188c-1.6-9.1-1.6-9.1,7.3-8.6c9.8,0.5,19.5,1.1,29,1.6c-1.2-4.5-2.6-9.6-4-14.7
			c13.2,5.5,25.5,10.6,37.3,15.6c-3.9,5.4-10.7,6.3-18.5,6c0.8,1.7,1.2,2.8,1.8,3.8c4.3,6.7,8.4,13.4,12.9,19.9
			c2,2.9,2.3,5.6,1.4,8.9c-1.7,6.1-2.5,12.5-4.5,18.4c-2,6.1-1.4,11.8,0.9,17.5c3.1,7.8,6,15.6,9.5,23.3c1.5,3.2,4.2,5.9,6.2,8.9
			c0.7,1,0.9,2.3,1.3,3.5c-1.3-0.3-3-0.3-4-1.1c-1.7-1.4-3.3-3.2-4.2-5.1c-5.2-12.4-10.1-24.8-15-37.3c-0.5-1.2,0-2.8,0.4-4.2
			c1.8-8,4-16,5.5-24.1c0.4-2.3-0.1-5.4-1.3-7.4c-4.2-7.1-8.7-14-13.4-20.8c-0.9-1.4-3.2-2.7-4.8-2.6c-12.5,0.4-25,1.1-37.9,1.8
			c0.4,1.7,0.7,3,1.1,4.3c3.5,10.3,6.6,20.8,10.7,30.9c2.5,6.2,1.9,11.3-0.9,17.1c-5.6,11.4-11.4,22.7-20.5,31.8
			c-2.2,2.2-4.9,4-7.5,5.8c-0.6,0.4-1.9-0.1-2.9-0.2c0.3-0.9,0.4-2.3,1-2.8c14.4-9.9,21.2-25.2,28.1-40.4c0.8-1.7,0.9-4.1,0.3-5.8
			c-4-12.5-8.4-24.9-12.5-37.3c-0.9-2.6-2.2-3-4.8-3.1c-10-0.4-17.7,2.8-25.2,10c-7.3,6.9-16.9,11.4-25.4,17.2
			c-1.6,1.1-2.8,3.2-3.3,5.1c-4.2,14.4-12.2,25.6-26.4,31.8c-1.3,0.6-2.6,1.2-4,1.4c-1.1,0.1-2.2-0.4-3.3-0.7c0.7-0.9,1.3-1.8,2-2.6
			c0.2-0.2,0.6-0.2,0.9-0.3c15.3-5.1,23.6-16.5,27.4-31.5c1-3.9,2.6-5.7,6.3-7.1c10.5-4,19.4-10.9,27.1-18.9
			c5.1-5.3,10.6-8.1,17.9-7.4C190,188.7,192.5,188.2,195.4,188z M198.8,182.7c-0.2,0.4-0.5,0.8-0.7,1.2c1.1,1.2,2.2,3.6,3.3,3.5
			c9.4-0.2,18.8-0.7,28.1-1.2c0-0.6,0-1.2,0-1.8C219.3,183.9,209,183.3,198.8,182.7z"/>
		<path class="st0" d="M125.2,112.1c8.1,1.8,16.2,3.5,24.3,5.4c7.7,1.9,15.3,3.9,22.9,6c2.9,0.8,4.9,0.5,7.1-1.9
			c7-7.5,14.5-14.7,21.6-22.1c2.8-2.9,4.2-2.3,5.7,1.1c4.8,11.2,9.6,22.4,14.6,33.5c0.8,1.7,2.2,3.1,3.5,4.8c-3,3.5-14,0-10.4,11.4
			c-31.1-10.4-61.9-19.9-89.6-37C124.9,113.1,125,112.6,125.2,112.1z M204,103.8c-7.7,7.4-15.1,14.4-23,21.9
			c12.3,3.5,24.2,6.8,37.1,10.4C213,124.6,208.3,113.9,204,103.8z"/>
		<path class="st0" d="M217.5,146.2c9.2-4.2,18.5-5.9,28.7-2.3c3.3-8.2,6.6-16.2,9.8-24.3c0.5-1.2,0.7-2.5,1.4-3.5
			c0.7-1,1.9-1.7,2.8-2.5c0.4,1.1,1.1,2.2,1,3.3c-0.4,5.5-0.9,11-1.5,16.5c0,0.5-0.2,0.9-0.2,1.4c-1,9-2.7,17.7,3.8,26
			c3,3.8,3,9.9,4.4,15.3C250.4,176.5,222.7,159.6,217.5,146.2z M256.4,131c-0.3-0.1-0.5-0.1-0.8-0.2c-2,4.9-3.9,9.7-5.9,14.7
			c1.7,1,3.1,1.8,4.9,2.9C255.2,142.2,255.8,136.6,256.4,131z"/>
		<path class="st0" d="M292.6,193.8c7.9,4.4,7.9,4.4,4.6,12.7c-1.2,2.9-2.3,5.9-3.5,9c5.2,4.6,11.4,6.6,18,8.1c1.1,0.2,2,1.4,3,2.1
			c-1.3,0.4-2.8,1.5-3.8,1.2c-6.3-1.8-12.5-4-19.4-6.3c-2.5,8.1-5.3,16.7-7.7,25.5c-0.4,1.4,0.7,3.6,1.7,5
			c7.3,10.4,16.6,18.6,28,24.4c1.2,0.6,1.9,2.3,2.9,3.5c-1.5-0.1-3.3,0.3-4.6-0.4c-12.7-6.2-22.8-15.4-30.4-27.2
			c-1.4-2.1-1.4-5.9-0.7-8.5c2-7.6,4.7-15.1,7.3-22.5c0.9-2.4,0.8-3.9-1.1-5.8c-3-3.2-5.5-6.9-8.2-10.3c-3.8-0.8-8-1.1-11.7-2.6
			c-2.1-0.8-4.2-3.5-4.7-5.6c-0.3-1.6,1.7-5,3.2-5.5c2.1-0.6,5,0.5,7.2,1.6c1.6,0.8,2.8,2.6,3.7,4.2c3.6,6.2,9.8,10,13.9,17.3
			c2.1-5.3,3.8-9.4,5.7-14c-3.8-1.4-7.2-2.5-10.4-3.9c-1.1-0.5-2-1.7-3-2.5c1.1-0.7,2.1-1.6,3.3-1.9c9.1-2.6,18.3-4.9,27.3-7.7
			c3.4-1.1,6.2-3.7,9.5-5.3c1-0.5,2.5-0.4,3.7-0.5c-0.5,1.2-0.7,2.7-1.6,3.4c-7.6,6.1-16.7,8.7-25.9,11.2
			C296.9,192.8,295.1,193.2,292.6,193.8z"/>
		<path class="st0" d="M164.7,165.8c2.1,5.9,4,11,6.1,16.6c-3,2.3-6.2,6.1-11.4,3.9c-2.9-1.2-7.7-11.3-6.7-14.5
			C154.6,165.4,160.8,167.8,164.7,165.8z"/>
		<path class="st0" d="M148.1,174.8c2,4.1,4.3,7.9,5.9,11.9c1.6,4.1-2.2,5.9-4.5,7.6c-3,2.1-6.4,0.9-8.1-2.2
			c-1.8-3.4-3-7.3-3.7-11.1c-0.6-3.3,1.7-5.2,4.9-5.8C144.4,174.9,146.3,174.9,148.1,174.8z"/>
		<path class="st0" d="M187.4,175.2c-0.3,0.2-0.7,0.6-1.3,0.9c-11.4,5.5-16.6,2.1-16.6-10.7c0-3.3,1.5-5.1,4.7-5.3
			c2-0.1,4.1,0,6.1,0C182.7,165.1,185,170.1,187.4,175.2z"/>
		<path class="st0" d="M196.9,153.9c1.4,5.7,2.6,10.9,3.9,16.3c-2.7,1.4-6.2,5.7-9.3,2c-3.2-3.8-6.3-9.6-5.9-14.1
			C186.2,152.4,193,155,196.9,153.9z"/>
		<path class="st0" d="M144.3,130c-8.7-3.5-17.4-7.1-26.1-10.5c-6.8-2.6-13.6-5-20.4-7.6c-0.9-0.4-1.5-1.6-2.3-2.4
			c1-0.3,2.2-1.2,3-1C115,112.9,130.1,120.4,144.3,130z"/>
		<path class="st0" d="M133.9,183.9c1,2.7,1.6,5,2.5,7.1c0.8,2,1.9,3.9,2.9,5.9c-1.6,3.5-5.1,6-7.7,3.5c-3.1-3-5.5-7.9-5.8-12.1
			C125.4,184.2,130.2,184,133.9,183.9z"/>
		<path class="st0" d="M202.4,154.6c4.3-0.6,5.4,2.4,6.7,5.6c1.2,3,3,5.8,4.6,8.7C207.1,172.3,200.2,164.7,202.4,154.6z"/>
		<path class="st0" d="M223.6,173.5c-4-5-8-10.1-12-15.1C221.3,158.7,224.6,157,223.6,173.5z"/>
		<path class="st0" d="M127.4,204c-4.3,0.4-8,0.7-11.7,1.1c-0.4-0.5-0.8-1-1.2-1.6c1.9-3.5,3.9-7,6.6-11.8
			C123.5,196.4,125.2,199.7,127.4,204z"/>
	</g>
	<path class="st0" d="M376.7,426.7l1.7,1.7l63.3-63.3c-0.8-1.1-1.8-2.3-2.9-3.4c-4-4-7.9-7.9-11.9-11.9
		c-9.6-9.6-19.6-19.6-29.5-29.3c-5.6-5.5-12.3-8.3-19.9-8.3c-1.9,0-3.8,0.2-5.8,0.5c-0.2,0-0.6-0.1-0.8-0.2
		c-4-3.4-7.8-7.2-11.9-11.2c0.2-0.3,0.5-0.7,0.7-1c28.6-41.8,39.3-87.6,31.6-135.9c-7.1-45.1-29.7-85.7-63.7-114.5
		C293.9,21.3,250.5,5.6,205.2,5.6c-5.8,0-11.7,0.3-17.5,0.8c-50,4.4-97,30.2-129,70.9C26.8,117.9,12.8,169.5,20.4,219
		c6.9,45.4,29.4,86.5,63.2,115.7c33.8,29.2,77.5,45.3,123.2,45.3c2.1,0,4.3,0,6.4-0.1c11.2-0.4,22.1-2.6,32.6-4.8
		c4.1-0.8,8.3-1.7,12.4-2.4c1.9-0.3,7.6-1.3,28.7-11c2.3-0.7,4.3-1.8,6.1-2.8c1.4-0.7,2.2-1.1,2.2-1.1l2.7-1.3l0.4-0.8
		c4.7-2.8,9.4-5.7,14.3-8.8c0.7-0.5,1.5-0.9,2.2-1.4c3.7,3.9,7.5,7.9,11,12c0,0.1,0,0.2,0,0.2c-1.9,10,0.8,19.2,8,26.5
		c4.2,4.3,8.5,8.6,12.6,12.7c1.6,1.6,3.3,3.3,4.9,4.9c2.1,2.1,4.2,4.2,6.3,6.3c5.9,6,12.1,12.2,18.5,18.1
		C376.4,426.5,376.5,426.6,376.7,426.7z M279.7,331.9c-0.4,0.2-0.8,0.4-1.2,0.6c-1,0.5-2.1,1.1-3.3,1.8c-8.1,4.3-15.1,6.9-19.7,8.3
		c-1.7,0.2-3.3,0.6-5,1.2c-0.5,0.2-1.2,0.4-2,0.5c-0.6,0.1-1.2,0.3-1.8,0.5c-13.5,3.6-27.1,5.4-40.5,5.4c-8,0-16-0.6-24-1.9
		c-38-6.1-72.6-25.9-97.4-55.6C60,263,47.4,226.1,49.1,188.8c1.9-40.1,17.5-77.5,44.1-105.2c26.6-27.7,62.8-44.5,102-47.3
		c3.9-0.3,7.8-0.4,11.6-0.4c49.1,0,94.6,22.6,124.6,62c29.9,39.2,39.5,88.9,26.5,136.3C346.1,277.1,319.8,310,279.7,331.9z M357,365
		c-0.4-0.4-0.7-0.7-0.9-0.9c0.2-0.2,0.4-0.4,0.6-0.6c4.4-4.1,8.6-8.3,12.6-12.5c2.1-2.1,4.2-4.2,6.3-6.3c0.7-0.7,1.3-1.3,1.8-1.7
		c0.4,0.4,1,0.9,1.7,1.6c3.6,3.6,7.3,7.3,10.9,10.9c4.2,4.2,8.4,8.5,12.7,12.8l-21.1,21.1C373.4,381.1,365.2,373,357,365z"/>
</g>
</svg>
