<svg width="34" height="50" viewBox="0 0 34 50" fill="none" xmlns="http://www.w3.org/2000/svg">
<g id="Group">
<path id="Vector" d="M23.8253 0.0441009C21.0676 0.499472 18.9312 3.73814 17.7651 9.23239C17.3565 11.1518 17.1522 12.8115 17.1139 14.4883C17.0969 15.3991 17.1012 15.6587 17.1565 15.9523C17.2331 16.3396 17.365 16.5651 17.5608 16.646C17.9353 16.7907 19.6844 17.0886 20.9314 17.2205C21.7996 17.3099 24.3062 17.3227 25.0553 17.2418C26.6767 17.0631 28.0812 16.6843 29.2515 16.1055C31.2773 15.1097 32.5753 13.5435 32.9711 11.6156C33.1583 10.7219 33.1839 10.1942 33.0817 9.38134C32.8945 7.86628 32.4348 6.55549 31.6007 5.16809C31.0219 4.20203 30.4346 3.44875 29.6388 2.65717C28.3535 1.37617 27.1151 0.597356 25.7405 0.210077C25.0085 0.00579859 24.3999 -0.0495269 23.8253 0.0441009ZM25.4511 0.865472C26.2895 1.07826 27.264 1.57619 28.1195 2.21882C28.7195 2.66993 29.8516 3.82326 30.3495 4.48716C32.2433 7.03214 32.9455 9.87927 32.2008 11.9987C31.9114 12.82 31.5284 13.4116 30.8517 14.084C29.9452 14.9862 28.6259 15.697 27.1704 16.0672C25.234 16.5609 22.8976 16.646 20.293 16.3183C19.2546 16.1906 18.446 16.0374 18.5141 15.9864C18.5524 15.9608 18.5396 15.9566 18.4758 15.9693C18.4205 15.9821 18.3651 15.9736 18.3524 15.9523C18.3396 15.931 18.3141 15.9225 18.297 15.931C18.28 15.9438 18.1949 15.8331 18.1098 15.6885L17.9523 15.4246V14.5521C17.9523 12.4625 18.4503 9.21962 19.1057 7.05342C19.1567 6.8917 19.1823 6.72572 19.1652 6.67039C19.1482 6.6023 19.1525 6.58953 19.178 6.62784C19.2333 6.7087 19.2801 6.58102 19.2461 6.43207C19.2291 6.3427 19.2333 6.32993 19.2674 6.381C19.3057 6.43632 19.3142 6.43207 19.3184 6.35972C19.3227 6.31291 19.327 6.24481 19.3227 6.21077C19.3142 6.12565 19.6163 5.31705 19.8547 4.78507C20.8505 2.55077 22.2252 1.12082 23.6806 0.801635C24.1913 0.690984 24.8723 0.716519 25.4511 0.865472ZM17.897 12.9435C17.8842 12.9732 17.8757 12.952 17.8757 12.8924C17.8757 12.8328 17.8842 12.8115 17.897 12.8371C17.9055 12.8668 17.9055 12.9179 17.897 12.9435ZM17.8119 14.05C17.8034 14.1053 17.7949 14.0712 17.7949 13.9776C17.7906 13.884 17.7991 13.8414 17.8119 13.8797C17.8204 13.9223 17.8204 13.9989 17.8119 14.05ZM17.8119 15.6246C17.8034 15.6799 17.7949 15.6374 17.7949 15.531C17.7949 15.4246 17.8034 15.382 17.8119 15.4331C17.8204 15.4884 17.8204 15.5735 17.8119 15.6246ZM17.8885 15.8715C17.9013 15.8927 17.8927 15.914 17.8715 15.914C17.8459 15.914 17.8247 15.8927 17.8247 15.8715C17.8247 15.8459 17.8332 15.8289 17.8417 15.8289C17.8544 15.8289 17.8757 15.8459 17.8885 15.8715Z" fill="#0F652E"/>
<path id="Vector_2" d="M11.8367 1.05702C11.6664 1.09958 11.4537 1.18044 11.3685 1.24002C11.1983 1.35493 11.0196 1.46132 10.7387 1.61453C10.262 1.87839 9.78112 2.42313 9.48321 3.04023C9.12573 3.77223 9.0321 4.33825 9.20659 4.67871C9.24914 4.75957 9.24914 4.84469 9.21935 5.04046C9.19807 5.1809 9.18531 5.44476 9.19807 5.6235C9.22361 6.00227 9.25766 5.97673 8.781 5.91715C8.3001 5.85332 7.50426 6.01929 7.01484 6.28315C6.66587 6.47466 6.46585 6.62787 6.13389 6.96408C5.48701 7.61096 5.19761 8.3685 5.15506 9.53033C5.13378 10.1049 5.14229 10.1942 5.26571 10.8028C5.41466 11.5348 5.61894 12.0838 5.91259 12.5392C6.44882 13.3818 7.16805 14.1096 7.75961 14.416C8.24903 14.6713 9.15552 14.9948 10.0194 15.2289C10.5429 15.3693 10.6578 15.3948 12.1686 15.7013C13.4794 15.9651 14.3433 16.1736 14.5902 16.2928C14.6966 16.3396 14.9009 16.4758 15.0413 16.5907C15.186 16.7099 15.369 16.8205 15.4456 16.8418C15.6499 16.8929 15.8797 16.8248 16.0542 16.6546C16.3521 16.3652 16.3606 15.9055 16.0882 15.297C15.935 14.9565 15.9265 14.9182 15.9648 14.7267C15.9946 14.5564 15.9818 14.399 15.8882 13.884L15.7733 13.2499L16.0116 12.2541C16.7862 8.97708 16.9564 7.38966 16.6968 5.95545C16.5223 5.01918 16.1563 4.15099 15.5563 3.26578C15.0456 2.50825 14.3008 1.7422 13.7518 1.41451C13.1602 1.05702 12.3942 0.912322 11.8367 1.05702ZM13.2198 1.97627C14.1008 2.38058 15.1903 3.68285 15.7222 4.96385C15.918 5.43625 15.9733 5.63201 16.0542 6.08313C16.2797 7.39392 16.0967 9.00261 15.3818 11.9859C15.2371 12.586 15.1434 13.0712 15.1434 13.2201C15.1434 13.3563 15.186 13.701 15.2371 13.9862C15.2881 14.2713 15.3179 14.5181 15.3052 14.5309C15.1817 14.6543 14.986 14.0372 14.9434 13.3989C14.9221 13.0797 14.9349 12.986 15.0328 12.6711C15.1562 12.2711 15.3392 11.4497 15.403 11.0114C15.4286 10.8539 15.5009 10.5602 15.569 10.3602C15.6414 10.1602 15.6967 9.92612 15.6967 9.84101C15.6967 9.75164 15.735 9.32605 15.7818 8.89196C15.8797 7.97271 15.8967 7.01941 15.8159 7.01941C15.7733 7.01941 15.7733 7.0109 15.8116 6.98536C15.8456 6.96408 15.8669 6.81087 15.8712 6.54701C15.8754 6.22357 15.8542 6.07887 15.7776 5.8448C15.7265 5.68308 15.6584 5.53839 15.6371 5.52136C15.6116 5.50434 15.5988 5.43199 15.6031 5.3639C15.6116 5.28304 15.5903 5.21069 15.535 5.15536C15.4882 5.10855 15.3435 4.86597 15.2115 4.61062C14.7093 3.64881 13.9859 2.80616 13.207 2.28269C13.0666 2.18906 12.8921 2.06139 12.8198 2.00181C12.7474 1.94223 12.6538 1.86988 12.607 1.84434C12.4453 1.74646 12.9687 1.86137 13.2198 1.97627ZM13.0155 4.18504C13.5901 4.58083 13.9859 5.15536 14.271 6.01929C14.4285 6.50445 14.4625 6.80236 14.4625 7.78545C14.4625 8.49617 14.4455 8.72173 14.3816 8.99836C14.2667 9.48352 14.1731 9.95591 14.1008 10.4453C13.8114 12.3392 13.8156 12.3009 13.8326 12.9435L13.8497 13.5648L13.7348 13.5095C13.6709 13.4755 13.4028 13.3904 13.139 13.3223C11.9814 13.0201 10.96 12.7222 10.3131 12.4966C9.86198 12.3392 9.21084 12.0796 9.15977 12.037C9.13424 12.0157 8.97252 11.9306 8.80654 11.8497C8.47459 11.688 8.16391 11.4199 7.92984 11.1007C7.81068 10.939 7.75961 10.7986 7.65747 10.356C7.58938 10.0538 7.51277 9.75164 7.48724 9.6878C7.3851 9.42394 7.44043 9.28775 7.87026 8.76003C7.99794 8.60257 8.12135 8.44085 8.14689 8.39829C8.18519 8.33445 8.27456 8.31743 8.70014 8.29189C10.0237 8.21103 10.4833 8.26636 10.8578 8.56001C11.1983 8.82387 11.5047 8.82813 11.7601 8.57278C11.9388 8.39403 12.0069 8.11741 11.9473 7.79822C11.926 7.67906 11.7941 7.34285 11.6537 7.05345C11.3004 6.30869 11.2068 5.98099 11.2068 5.48732C11.2068 5.16813 11.2281 5.02769 11.3047 4.82341C11.4366 4.48295 11.6707 4.19781 11.9303 4.06162C12.109 3.96799 12.1857 3.95097 12.4282 3.96374C12.6878 3.9765 12.7389 3.99778 13.0155 4.18504ZM10.6706 4.49571C10.5557 4.81915 10.5131 5.58946 10.5897 6.01078C10.6493 6.34273 10.811 6.83215 11.0153 7.30029L11.143 7.59394L10.9132 7.3471C10.7302 7.15134 10.6578 7.02792 10.5514 6.73001C10.2195 5.79799 10.2152 5.12983 10.5344 4.61062C10.6025 4.49571 10.6706 4.36804 10.6876 4.32548C10.7004 4.28718 10.7259 4.25313 10.7344 4.25313C10.7472 4.25313 10.7174 4.36378 10.6706 4.49571ZM15.4967 5.27453C15.5094 5.32134 15.5009 5.35113 15.4796 5.33411C15.4584 5.32134 15.4413 5.28304 15.4413 5.24899C15.4413 5.16387 15.4711 5.17664 15.4967 5.27453ZM15.6669 6.52999C15.6839 6.69171 15.6797 6.75555 15.6541 6.70022C15.6201 6.61936 15.5946 6.21931 15.6286 6.25762C15.6371 6.26613 15.6541 6.38955 15.6669 6.52999ZM9.3981 6.84492C9.52577 6.89173 9.696 6.97259 9.77686 7.02366C9.89603 7.09601 9.91305 7.12155 9.85772 7.15134C9.82368 7.17262 9.73856 7.17262 9.67047 7.15134C9.45768 7.09176 9.10019 6.92578 9.10019 6.88748C9.10019 6.8662 9.04912 6.82364 8.98528 6.78534L8.86612 6.71724L9.01507 6.73852C9.09593 6.74704 9.27042 6.7981 9.3981 6.84492ZM7.0574 8.05782C7.0574 8.06634 7.02336 8.10038 6.98505 8.13017C6.91696 8.1855 6.9127 8.18124 6.96803 8.11315C7.02336 8.04506 7.0574 8.02378 7.0574 8.05782ZM7.28296 8.27487C7.09996 8.49617 7.05315 8.52596 7.18508 8.33871C7.23615 8.26636 7.26168 8.21103 7.2404 8.21103C7.21487 8.21103 7.37659 8.10464 7.43191 8.08761C7.44043 8.08336 7.37233 8.16847 7.28296 8.27487ZM7.1638 8.25359C7.15103 8.27487 7.11698 8.29615 7.0957 8.29615C7.07017 8.29615 7.06591 8.27487 7.07868 8.25359C7.09145 8.22806 7.1255 8.21103 7.14677 8.21103C7.17231 8.21103 7.17656 8.22806 7.1638 8.25359ZM6.79354 9.19838C6.74673 9.41543 6.75524 9.47926 6.89994 10.0453C6.98505 10.3815 7.08294 10.7773 7.11273 10.9262C7.22338 11.3986 7.67449 12.0072 8.16391 12.3392C8.96826 12.8839 10.4408 13.4287 12.7134 14.0202C13.2453 14.1564 13.573 14.2713 13.939 14.4458C14.2114 14.5735 14.4455 14.6884 14.454 14.7011C14.4625 14.7097 14.4412 14.7522 14.4029 14.7905C14.3348 14.8543 14.3136 14.8543 14.0667 14.765C13.7646 14.6543 13.3645 14.4628 13.1475 14.3139C12.9091 14.1564 12.3516 13.9947 11.9303 13.9606C11.7218 13.9436 11.509 13.9053 11.4622 13.8798C11.4153 13.85 11.2153 13.7819 11.0153 13.7266C10.1939 13.4925 9.58961 13.3095 9.54705 13.284C9.52577 13.2712 9.41086 13.1903 9.2917 13.1052C9.09168 12.9605 8.87038 12.8584 8.55545 12.769C8.4448 12.735 8.42777 12.7392 8.44905 12.7945C8.47033 12.8499 8.46182 12.8541 8.37245 12.8073C8.31712 12.7775 8.18519 12.6881 8.08305 12.6073C7.98091 12.5307 7.87452 12.4668 7.84473 12.4668C7.77663 12.4668 7.36808 12.0327 7.18933 11.7731C6.95952 11.4369 6.85738 11.1561 6.67438 10.4028C6.44457 9.41968 6.44457 9.1388 6.68715 9.01538C6.76375 8.97708 6.82759 8.94729 6.83184 8.95154C6.84036 8.96006 6.81908 9.06645 6.79354 9.19838ZM7.95538 12.6669C8.0107 12.735 8.00645 12.7392 7.94261 12.6839C7.87026 12.6286 7.84898 12.5945 7.88303 12.5945C7.89154 12.5945 7.92559 12.6286 7.95538 12.6669ZM15.3307 15.2416C15.5435 15.7779 15.5648 15.863 15.4541 15.7013C15.4158 15.6417 15.2881 15.4842 15.1775 15.348C14.9604 15.0842 14.9349 14.982 15.0243 14.7309C15.0668 14.6118 15.0839 14.6033 15.1094 14.6671C15.1264 14.7097 15.2243 14.965 15.3307 15.2416Z" fill="#0F652E"/>
<path id="Vector_3" d="M11.3558 17.3865C9.95565 17.5185 8.91723 17.7994 8.29163 18.2207C7.95116 18.4462 7.61495 18.8207 7.45323 19.1527C7.19363 19.6889 6.98509 20.7699 6.94254 21.8296C6.87444 23.6256 7.34684 26.1492 8.10012 27.958C8.42356 28.741 9.02363 29.7624 9.44069 30.2476C9.72158 30.5753 10.2067 30.9626 10.5132 31.1073C10.6621 31.1754 10.9175 31.2562 11.0877 31.286C11.3473 31.3286 11.4409 31.3243 11.7218 31.2647C12.1474 31.1711 12.4325 31.0009 12.8666 30.5753C14.1817 29.29 15.1222 26.5152 15.5691 22.6084C15.7435 21.1061 15.8457 18.659 15.7563 18.1185C15.718 17.9015 15.4925 17.6461 15.2754 17.5823C14.9349 17.4759 13.9135 17.3993 12.7389 17.3865C12.0836 17.378 11.4622 17.378 11.3558 17.3865ZM15.1052 19.2123C15.0967 19.7017 15.0796 20.1188 15.0626 20.1358C15.0498 20.1528 15.0456 19.8719 15.0541 19.5144C15.0669 18.9357 15.0584 18.8463 14.9903 18.7441C14.9477 18.676 14.9094 18.5484 14.9094 18.459C14.9052 18.3058 14.9137 18.293 15.0158 18.3058L15.1222 18.3186L15.1052 19.2123ZM15.0371 21.0125C15.0201 21.2551 14.9988 21.4423 14.9903 21.4338C14.9775 21.4253 14.986 21.1402 15.003 20.804C15.0243 20.4677 15.0456 20.2762 15.0498 20.3826C15.0584 20.489 15.0541 20.7699 15.0371 21.0125ZM14.9605 21.9445C14.952 22.0126 14.9435 21.9573 14.9435 21.8296C14.9435 21.7019 14.952 21.6466 14.9605 21.7104C14.969 21.7785 14.969 21.8807 14.9605 21.9445ZM14.9179 22.3063C14.9052 22.336 14.8966 22.3148 14.8966 22.2552C14.8966 22.1956 14.9052 22.1743 14.9179 22.1999C14.9264 22.2296 14.9264 22.2807 14.9179 22.3063ZM14.8754 22.6893C14.8669 22.7446 14.8583 22.7106 14.8583 22.6169C14.8541 22.5233 14.8626 22.4807 14.8754 22.519C14.8839 22.5616 14.8839 22.6382 14.8754 22.6893ZM14.7902 23.4128C14.7775 23.4426 14.769 23.4213 14.769 23.3617C14.769 23.3021 14.7775 23.2808 14.7902 23.3064C14.7988 23.3362 14.7988 23.3872 14.7902 23.4128Z" fill="#0F652E"/>
<path id="Vector_4" d="M19.9526 17.5355C18.9439 17.5653 18.1396 17.6589 17.5395 17.8079C16.765 18.0036 16.6926 18.0845 16.5011 18.9612C15.4414 23.7788 15.4967 27.9197 16.6586 30.4221C17.2416 31.669 18.3311 32.7458 19.3355 33.0649C19.4291 33.0947 19.527 33.133 19.5483 33.1543C19.6334 33.2182 19.4844 34.8566 19.3099 35.7887C19.0205 37.308 18.429 39.0103 17.7183 40.3722C15.6627 44.2918 12.2112 46.8495 8.27036 47.3687C7.79797 47.4326 6.19353 47.4283 5.67432 47.3645C4.39332 47.207 3.25277 46.8495 1.97177 46.2069C1.31212 45.8707 1.10784 45.8324 0.899305 45.9856C0.618421 46.1941 0.520538 46.4793 0.592886 46.8538C0.635444 47.0623 0.669491 47.1176 0.907816 47.3474C1.72068 48.1348 3.10807 48.9604 4.32097 49.3817C7.37239 50.4329 10.7175 50.1392 13.888 48.5348C15.3478 47.7986 16.4968 46.9559 17.7183 45.7302C19.5738 43.8662 20.9484 41.4574 21.6123 38.9124C22.0294 37.3037 22.2081 35.9376 22.2081 34.3119V33.4139L22.4337 33.3841C23.57 33.2437 25.234 32.6606 26.4427 31.9797C28.4727 30.8392 30.2984 29.2007 31.4092 27.5324C32.3157 26.1705 32.737 24.9704 32.7327 23.7447C32.7327 23.0212 32.6306 22.5403 32.337 21.9318C31.3879 19.9656 29.1664 18.6548 25.5617 17.9355C24.6254 17.7525 23.1316 17.5823 22.1869 17.5525C21.7911 17.5398 21.3314 17.5227 21.1655 17.5185C21.0037 17.51 20.4547 17.5185 19.9526 17.5355ZM22.3145 18.2973C26.2554 18.5314 29.2217 19.4719 30.7964 20.9955C31.4475 21.6253 31.8135 22.1956 32.005 22.8808C32.1199 23.2979 32.1284 24.1107 32.022 24.5874C31.6092 26.4599 30.0984 28.49 27.8896 30.1455C26.5831 31.1243 25.4383 31.7371 24.0509 32.2095C23.3615 32.4393 22.1528 32.6777 22.0975 32.5883C22.0847 32.567 22.0507 32.567 22.0209 32.5925C21.9953 32.6138 21.8762 32.6479 21.7613 32.6606L21.5485 32.6904V34.1629C21.5485 35.7163 21.5229 36.0781 21.3314 37.1931C20.5186 41.9085 17.7183 45.777 13.6114 47.8496C12.3091 48.5093 10.8366 48.9774 9.6535 49.1093C9.4322 49.1349 9.16408 49.1647 9.06194 49.1774C8.93853 49.1945 8.88746 49.1859 8.90873 49.1562C8.92576 49.1221 8.80234 49.1093 8.5172 49.1051C7.47453 49.1008 6.69571 48.9944 5.52111 48.7093C3.73793 48.2709 2.20158 47.5772 1.37596 46.8325C1.16742 46.6452 1.18019 46.6495 1.73344 46.9304C2.82719 47.4921 3.99753 47.8752 5.29555 48.0965C6.04883 48.2241 7.80648 48.2326 8.52571 48.1135C9.95992 47.8794 11.0835 47.5177 12.2623 46.9176C13.5731 46.2494 14.6073 45.4791 15.7436 44.3173C16.4117 43.6279 16.9011 43.0235 17.4757 42.1468C18.0715 41.2446 18.0502 41.2787 17.9991 41.385C17.9779 41.4319 17.8715 41.6234 17.7651 41.8106C17.5055 42.2575 17.6885 42.0404 18.0374 41.4829C18.3864 40.9212 19.0333 39.6487 19.2674 39.0444C19.9015 37.4271 20.2632 35.9121 20.442 34.1332C20.5313 33.2139 20.5271 32.7628 20.425 32.5585C20.3186 32.35 20.276 32.3202 19.9355 32.1925C19.0801 31.8691 18.5141 31.452 17.9949 30.7583C17.4076 29.9752 16.9777 28.7325 16.7777 27.2345C16.6841 26.5365 16.6501 24.4044 16.7139 23.5234C16.8033 22.3488 17.0373 20.6465 17.2671 19.5315C17.3523 19.1102 17.3437 18.8293 17.2501 18.8676C17.2118 18.8803 17.2033 18.8548 17.2246 18.7739C17.2501 18.6846 17.3012 18.642 17.4757 18.5824C18.2545 18.3228 20.5016 18.1909 22.3145 18.2973ZM8.81511 49.1817C8.78532 49.1902 8.72574 49.1902 8.68743 49.1817C8.64487 49.1689 8.67041 49.1604 8.7385 49.1604C8.81085 49.1604 8.84064 49.1689 8.81511 49.1817Z" fill="#0F652E"/>
</g>
</svg>
