<?xml version="1.0" standalone="no"?>
<!DOCTYPE svg PUBLIC "-//W3C//DTD SVG 20010904//EN"
 "http://www.w3.org/TR/2001/REC-SVG-20010904/DTD/svg10.dtd">
<svg version="1.0" xmlns="http://www.w3.org/2000/svg"
 width="512.000000pt" height="512.000000pt" viewBox="0 0 512.000000 512.000000"
 preserveAspectRatio="xMidYMid meet">

<g transform="translate(0.000000,512.000000) scale(0.100000,-0.100000)" stroke="none">
<path d="M3865 4945 c-41 -11 -60 -24 -105 -74 -31 -34 -61 -61 -68 -61 -7 0
-31 9 -53 21 -57 29 -136 28 -191 -3 -61 -34 -98 -92 -107 -167 -8 -70 -18
-81 -75 -81 -49 0 -118 -32 -150 -71 l-25 -29 -863 0 c-511 0 -892 -4 -933
-10 -208 -30 -378 -202 -405 -410 -6 -45 -10 -712 -10 -1667 l0 -1592 -295 -3
c-291 -3 -295 -3 -317 -26 -47 -47 -33 -287 23 -393 60 -113 173 -191 302
-210 87 -12 3373 -11 3461 1 173 25 311 164 336 337 6 41 10 457 10 1036 0
849 2 971 15 991 l15 23 187 -37 c119 -24 195 -35 208 -30 30 11 48 37 48 68
0 16 -80 177 -191 382 l-190 355 7 52 c4 29 11 56 14 60 4 4 35 10 69 14 73 9
132 46 165 104 30 53 31 140 3 195 -11 22 -20 45 -20 52 0 7 27 37 61 68 51
46 63 64 74 108 12 44 12 60 0 105 -11 43 -23 61 -74 107 -34 31 -61 61 -61
68 0 7 9 30 20 52 39 77 20 189 -42 247 -32 30 -90 53 -135 53 -56 0 -66 11
-74 81 -9 75 -46 133 -107 167 -55 31 -134 32 -191 3 -22 -12 -46 -21 -54 -21
-7 0 -35 25 -62 56 -68 79 -131 102 -220 79z m109 -182 c30 -48 53 -69 99 -88
49 -20 113 -19 166 5 24 11 50 20 59 20 29 0 52 -31 52 -72 0 -107 89 -197
194 -198 43 0 76 -22 76 -50 0 -10 -9 -37 -20 -61 -24 -53 -25 -117 -5 -166
19 -46 40 -69 88 -99 29 -19 37 -31 37 -54 0 -23 -8 -35 -37 -54 -48 -30 -69
-53 -88 -99 -20 -49 -19 -113 5 -166 24 -53 25 -69 3 -93 -11 -12 -30 -18 -60
-18 -102 0 -193 -90 -193 -191 0 -46 -21 -79 -50 -79 -10 0 -37 9 -61 20 -53
24 -117 25 -166 5 -46 -19 -69 -40 -99 -87 -19 -30 -31 -38 -54 -38 -23 0 -35
8 -54 38 -30 47 -53 68 -99 87 -49 20 -113 19 -166 -5 -24 -11 -50 -20 -59
-20 -29 0 -52 31 -52 72 0 104 -89 198 -187 198 -45 0 -83 23 -83 49 0 11 9
38 20 62 24 53 25 117 5 166 -19 46 -40 69 -87 99 -30 19 -38 31 -38 54 0 23
8 35 38 54 47 30 68 53 87 99 20 49 19 113 -5 166 -11 24 -20 51 -20 62 0 26
38 49 83 49 97 0 187 94 187 196 0 41 23 74 50 74 10 0 37 -9 61 -20 53 -24
117 -25 166 -5 46 19 69 40 99 88 19 29 31 37 54 37 23 0 35 -8 54 -37z m-881
-486 c9 -23 17 -47 17 -54 0 -6 -19 -26 -42 -45 -24 -18 -49 -40 -56 -48 -44
-51 -58 -160 -28 -218 9 -17 41 -52 71 -78 30 -26 55 -54 55 -61 0 -8 -10 -33
-21 -56 -68 -133 31 -297 179 -297 51 0 70 -22 74 -85 2 -48 -5 -65 -186 -400
-110 -203 -189 -361 -189 -377 0 -31 18 -57 48 -68 13 -5 83 4 190 26 93 19
178 34 189 34 15 -1 52 -42 129 -146 63 -85 118 -149 132 -154 27 -10 64 -1
83 22 6 8 48 183 92 388 45 206 83 376 85 379 3 2 7 2 10 0 2 -3 40 -173 84
-379 62 -286 85 -379 100 -394 27 -27 75 -25 106 4 l25 23 0 -894 c0 -878 -1
-895 -21 -939 -27 -60 -54 -88 -114 -116 -88 -41 -193 -29 -264 32 -62 54 -75
90 -81 241 -5 121 -7 134 -28 155 l-23 23 -1334 3 -1335 2 2 1648 3 1647 24
45 c42 81 118 145 201 171 14 4 425 8 915 8 l890 1 18 -43z m649 -1132 l28
-40 -63 -293 c-35 -161 -66 -294 -69 -295 -4 -1 -36 37 -72 85 -96 128 -89
125 -242 94 -70 -14 -129 -25 -131 -23 -1 2 55 111 126 243 l129 239 79 -3
c63 -2 85 2 113 18 48 27 69 22 102 -25z m458 24 c33 -17 54 -20 116 -18 l76
4 129 -239 c71 -132 127 -241 126 -243 -2 -2 -61 9 -131 23 -153 31 -142 35
-241 -95 -38 -50 -72 -87 -76 -83 -3 4 -32 130 -63 280 -32 150 -60 280 -63
290 -5 21 51 102 72 102 8 0 33 -9 55 -21z m-600 -2566 c0 -73 21 -166 51
-224 l29 -59 -1541 0 c-1186 0 -1551 3 -1583 12 -54 16 -128 90 -144 144 -6
23 -12 69 -12 103 l0 61 1600 0 1600 0 0 -37z"/>
<path d="M3855 4554 c-229 -35 -406 -189 -471 -410 -23 -78 -23 -210 0 -288
72 -245 283 -408 531 -409 156 -1 286 52 396 162 175 175 212 427 97 655 -61
121 -214 241 -348 274 -55 13 -164 22 -205 16z m236 -192 c84 -41 150 -107
191 -190 31 -62 33 -73 33 -172 0 -98 -2 -110 -32 -170 -41 -83 -110 -152
-193 -193 -60 -30 -72 -32 -170 -32 -98 0 -110 2 -170 32 -84 41 -155 111
-194 193 -29 60 -31 73 -31 170 0 97 2 110 31 170 35 72 107 151 169 183 74
38 117 47 211 44 79 -2 100 -7 155 -35z"/>
<path d="M4129 4146 c-14 -7 -83 -57 -154 -110 l-129 -97 -67 67 c-55 54 -74
67 -99 67 -41 0 -73 -32 -73 -73 0 -27 16 -48 101 -132 83 -84 106 -101 131
-101 23 0 71 30 206 132 105 78 180 142 185 156 23 61 -43 121 -101 91z"/>
<path d="M1801 3987 c-14 -6 -40 -38 -59 -71 l-34 -58 -37 36 c-57 55 -121 48
-144 -17 -9 -24 6 -58 44 -101 29 -34 30 -38 16 -54 -26 -28 -47 -88 -47 -133
0 -25 15 -77 39 -134 l39 -93 -26 -7 c-59 -15 -75 -50 -61 -135 20 -123 105
-238 217 -294 83 -42 165 -47 684 -44 476 3 478 3 499 25 29 29 29 77 0 106
-18 19 -35 22 -116 25 -52 2 -95 5 -95 7 0 1 11 22 24 46 29 54 44 101 49 155
2 22 13 54 25 72 65 91 69 199 10 284 -12 18 -18 44 -18 82 0 98 -47 172 -135
212 -76 36 -182 27 -234 -20 -12 -11 -37 -16 -77 -16 -35 0 -75 -8 -99 -19
-49 -22 -109 -86 -124 -133 -11 -34 -12 -35 -69 -35 -31 -1 -69 -6 -84 -12
-26 -10 -29 -8 -42 22 -7 18 -33 50 -57 70 l-43 38 32 58 c38 69 39 82 10 115
-29 31 -57 39 -87 23z m812 -228 c33 -15 51 -51 44 -86 -20 -96 -21 -90 17
-129 44 -45 54 -79 35 -113 -22 -38 -63 -55 -101 -42 -47 16 -83 13 -103 -9
-13 -14 -31 -20 -61 -20 l-42 0 -11 50 c-16 73 -35 113 -75 158 -43 48 -46 83
-10 118 21 21 31 25 60 20 111 -20 102 -21 137 17 45 48 68 55 110 36z m-819
-122 c32 -23 31 -85 -2 -157 l-30 -65 -15 35 c-9 19 -25 57 -36 83 -26 60 -26
72 -1 97 23 23 58 26 84 7z m377 -142 c38 -28 60 -62 66 -100 l6 -35 -162 0
c-155 0 -161 1 -161 20 0 39 39 99 78 120 47 26 136 23 173 -5z m440 -332
c-25 -49 -55 -77 -111 -102 -42 -19 -65 -21 -343 -21 -297 0 -298 0 -346 25
-49 25 -105 82 -114 116 -5 18 10 19 464 19 l469 0 -19 -37z"/>
<path d="M1410 2627 c-38 -19 -54 -60 -38 -94 26 -54 11 -53 720 -50 l657 2
22 22 c29 29 29 77 0 106 l-22 22 -657 2 c-517 2 -662 0 -682 -10z"/>
<path d="M1410 2227 c-38 -19 -54 -60 -38 -94 26 -55 -14 -53 1040 -50 l977 2
22 22 c29 29 29 77 0 106 l-22 22 -977 2 c-775 2 -982 0 -1002 -10z"/>
<path d="M1410 1827 c-38 -19 -54 -60 -38 -94 26 -54 8 -53 760 -50 l697 2 22
22 c14 13 22 34 22 53 0 19 -8 40 -22 53 l-22 22 -697 2 c-549 2 -702 0 -722
-10z"/>
<path d="M3345 1755 c-5 -2 -22 -6 -36 -9 -14 -3 -39 -18 -55 -33 -16 -15 -38
-28 -49 -29 -65 -2 -78 -7 -115 -40 -41 -37 -66 -98 -55 -134 4 -12 -1 -23
-13 -32 -57 -40 -73 -137 -33 -201 12 -19 28 -38 37 -41 10 -4 13 -13 9 -25
-10 -33 13 -95 48 -129 36 -35 96 -57 127 -47 13 4 22 1 26 -9 3 -9 22 -25 41
-37 50 -31 122 -29 173 5 22 14 40 31 40 37 0 6 8 8 18 5 32 -10 94 12 128 45
36 35 59 97 49 130 -4 12 -1 21 9 25 30 11 58 73 58 124 0 51 -28 113 -58 124
-9 4 -13 13 -10 23 10 34 -12 96 -47 130 -34 35 -96 57 -130 47 -10 -3 -19 1
-23 10 -12 30 -104 71 -139 61z m41 -176 c24 -27 74 -49 114 -49 27 0 30 -3
30 -30 0 -39 22 -92 50 -120 l22 -22 -25 -26 c-30 -32 -47 -72 -47 -113 0 -26
-3 -29 -30 -29 -39 0 -92 -22 -120 -50 l-22 -22 -26 25 c-32 30 -72 47 -113
47 -26 0 -29 3 -29 30 0 39 -22 92 -50 120 l-22 22 25 26 c30 32 47 72 47 113
0 26 3 29 30 29 40 0 90 22 114 49 11 11 22 21 26 21 4 0 15 -10 26 -21z"/>
<path d="M1410 1427 c-38 -19 -54 -60 -38 -94 26 -54 14 -53 680 -50 l617 2
22 22 c14 13 22 34 22 53 0 19 -8 40 -22 53 l-22 22 -617 2 c-485 2 -622 0
-642 -10z"/>
</g>
</svg>
