<svg id="Layer_2" data-name="Layer 2" xmlns="http://www.w3.org/2000/svg" viewBox="0 0 50 50"><defs><style>.cls-1{fill:#416326;}</style></defs><title>Untitled-1</title><path class="cls-1" d="M25,49A24,24,0,0,1,1.61,30.33,23.42,23.42,0,0,1,1.23,28c0-.36-.09-.72-.15-1.08,0-.09,0-.17-.05-.26l0-.13v-3l.11-.9c.08-.6.15-1.2.25-1.8A24,24,0,0,1,20.78,1.38c.61-.1,1.22-.18,1.83-.26L23.48,1h2.91l.91.12c.63.08,1.26.16,1.88.27a22.06,22.06,0,0,1,4.73,1.35l.27.11L33,5.94l-.27-.1a22.67,22.67,0,0,0-7.84-1.48A20.33,20.33,0,0,0,14.65,7.16,19.83,19.83,0,0,0,5.6,18,20.63,20.63,0,1,0,42,13.32l-.23,1.62-3.33-.42.88-6.92h6.9v3.34H44.43A24,24,0,0,1,29.14,48.65,24.45,24.45,0,0,1,25,49Z"/><path class="cls-1" d="M25,39.74A14.73,14.73,0,1,1,39.75,25,14.63,14.63,0,0,1,25,39.74Zm0-26.11A11.39,11.39,0,1,0,33.06,17,11.38,11.38,0,0,0,25,13.64v0Z"/><polygon class="cls-1" points="23.35 26.66 23.35 18.78 26.68 18.78 26.68 23.31 31.22 23.31 31.22 26.66 23.35 26.66"/></svg>