<svg id="Layer_2" data-name="Layer 2" xmlns="http://www.w3.org/2000/svg" viewBox="0 0 50 50"><defs><style>.cls-1{fill:#fff;}.cls-2{fill:#416326;}</style></defs><title>Untitled-1</title><path class="cls-1" d="M30.22,8.87l-4-4a1.81,1.81,0,0,0-1.2-.66,1.78,1.78,0,0,0-1.19.66L6.15,22.61c-.48.48-1,1-1.44,1.45a1.19,1.19,0,0,0-.24,1.41,1.22,1.22,0,0,0,1.17.78H7.45a1.74,1.74,0,0,1,2,2V43.43a2.06,2.06,0,0,0,2.22,2.22h5.76v-3q0-3.16,0-6.33a5.4,5.4,0,0,1,5.63-5.61h4a5.38,5.38,0,0,1,5.58,5.61q0,3.11,0,6.22v3.09h3.5c.69,0,1.38,0,2.07,0h.12A2.25,2.25,0,0,0,40,45a2.43,2.43,0,0,0,.65-1.77c0-3.76,0-7.59,0-11.29V28.13a1.7,1.7,0,0,1,1.85-1.87h2a1.27,1.27,0,0,0,1.19-.91c.2-.64-.08-1.09-.59-1.61Z"/><path class="cls-2" d="M47.08,21Q38.15,12.11,29.23,3.16A7.45,7.45,0,0,0,26.17,1H23.86a7.31,7.31,0,0,0-2.94,2.1l-.12.12L7.35,16.69,2.56,21.48c-.13.13-.26.26-.38.4a4.47,4.47,0,0,0-.92,4.55A4.46,4.46,0,0,0,4.81,29.5a8,8,0,0,0,1.07.11h.24v4.16q0,4.81,0,9.61A5.36,5.36,0,0,0,11.71,49h7.05a1.74,1.74,0,0,0,2-2V36.37A2.07,2.07,0,0,1,23,34.07h2.44l1.47,0h.11a2.25,2.25,0,0,1,1.65.64,2.39,2.39,0,0,1,.64,1.74c0,2.61,0,5.25,0,7.81v2.87A1.71,1.71,0,0,0,31.23,49h7.24a5.78,5.78,0,0,0,1.35-.14A5.37,5.37,0,0,0,44,43.52c0-3.25,0-6.5,0-9.75V29.6h.5a4.6,4.6,0,0,0,3.12-1.26A5.14,5.14,0,0,0,49,26V23.86A6.75,6.75,0,0,0,47.08,21Zm-1.4,4.34a1.27,1.27,0,0,1-1.19.91h-2a1.7,1.7,0,0,0-1.85,1.87V32c0,3.7,0,7.52,0,11.29A2.43,2.43,0,0,1,40,45a2.25,2.25,0,0,1-1.65.64h-.12c-.69,0-1.38,0-2.07,0h-3.5V42.56q0-3.11,0-6.22a5.38,5.38,0,0,0-5.58-5.61h-4a5.4,5.4,0,0,0-5.63,5.61q0,3.16,0,6.33v3H11.67a2.06,2.06,0,0,1-2.22-2.22V28.26a1.74,1.74,0,0,0-2-2H5.64a1.22,1.22,0,0,1-1.17-.78,1.19,1.19,0,0,1,.24-1.41c.47-.5,1-1,1.44-1.45L23.86,4.9a1.78,1.78,0,0,1,1.19-.66,1.81,1.81,0,0,1,1.2.66l4,4L45.09,23.73C45.61,24.25,45.88,24.7,45.68,25.34Z"/></svg>