<?xml version="1.0" encoding="utf-8"?>
<!-- Generator: Adobe Illustrator 21.0.2, SVG Export Plug-In . SVG Version: 6.00 Build 0)  -->
<svg version="1.1" id="Layer_1" xmlns="http://www.w3.org/2000/svg" xmlns:xlink="http://www.w3.org/1999/xlink" x="0px" y="0px"
	 viewBox="0 0 300 434" style="enable-background:new 0 0 300 434;" xml:space="preserve">
<style type="text/css">
	.st0{fill:#416326;}
</style>
<g>
	<path class="st0" d="M147.9,101.2c-9.4,0-18.3,3.2-24.3,8.8c-0.2,0.3-0.4,0.9-0.4,1.2c4.7,11.8,12.3,21.8,20.4,32.3
		c1.4,1.9,2.9,3.8,4.3,5.7c0.3-0.4,0.6-0.8,0.9-1.1c2.5-3.2,4.8-6.2,6.9-9.3c4.7-7.2,9.2-14.7,13.6-21.9c1.1-1.9,2.3-3.7,3.4-5.6
		c0.2-0.4,0.3-0.6,0.3-0.7c-0.1-0.1-0.2-0.3-0.6-0.7C166.3,104.4,157.3,101.2,147.9,101.2z"/>
	<path class="st0" d="M138.8,160.9c-1.8-2.5-3.6-4.9-5.3-7.3c-5.2-7-10-13.6-14.7-20.6c-11.4-16.8-15.8-33.4-13.5-50.6
		c0.3-2,0.7-3.9,1.3-5.8c-9,9.1-15.9,23.5-16.4,36.1c-1.3,28.1,11.4,51.1,26.3,73.9L138.8,160.9z"/>
	<path class="st0" d="M147.7,87c9.9,0,19.6,2.8,28.9,8.4c1.7-14.6-2.9-25.3-13.6-31.8c-4.5-2.7-9.6-4.1-15-4.1
		c-6.7,0-13.2,2.3-18.3,6.4c-8.7,7-12.7,18.4-10.5,29.5C128.1,89.9,137.9,87,147.7,87z"/>
	<path class="st0" d="M222.8,250c-12.1-11.8-25.1-24.6-40.8-40.2c-0.3-0.3-0.6-0.6-0.8-0.9L157,240c2.9,3.3,5.8,6.5,8.7,9.8
		c9.1,10.2,18.4,20.7,27.7,31c1.9,2.1,2.7,2.2,2.9,2.2c0.3,0,1.2-0.2,3.3-2.2c7.2-7.2,14.6-14.5,21.7-21.7l1.6-1.6
		c2.7-2.7,2.9-3.6,2.9-3.8C225.8,253.5,225.5,252.6,222.8,250z"/>
	<path class="st0" d="M193.3,163.5c0.1-0.6,0.3-1.1,0.4-1.4c0.7-1.3,5-11.7,7.5-17.9l0.2-0.4l0,0c0.1-0.3,0.2-0.7,0.3-1.1
		c5.3-16.6,5.7-30.4,1.3-43.4c-2.9-8.6-7.5-16.1-13.6-22.3c0.5,1.8,0.9,3.5,1.2,5.4c2.4,18.4-2.4,35.9-14.4,51.9
		c-13,17.4-27.4,35.4-46.5,58.5c-8.7,10.5-18.7,20.4-27.5,29.1c-0.4,0.4-1,1.2-1.6,2c-0.4,0.6-0.9,1.3-1.5,1.9l0,0.3l-19.7,18.4
		l-0.1-0.2c-1,1-2,1.9-3,2.8c-1.4,1.3-2.9,2.7-4.3,4.1c-1.8,1.7-1.9,2.5-1.9,2.7c0,0.2,0.1,0.9,1.8,2.6c8,8.1,16.1,16.2,25,25
		c1.6,1.6,2.5,1.8,2.7,1.8c0.2,0,1.2-0.2,3.1-2.4c4.2-4.9,8.4-9.8,12.6-14.7c14.2-16.4,28.8-33.4,42.7-50.5
		C169.9,201,183.3,183.3,193.3,163.5z"/>
	<path class="st0" d="M148.4,13C88.6,12.8,35.1,50,13.8,106.1c-14.7,38.7-10.1,76.6,4.3,114.1C46,292.8,90.2,355.6,138.4,415.8
		c6,7.4,13.7,6.9,20.1-1.1c41.4-51.4,78.9-105.2,107.1-165.1c13.1-27.9,24.1-56.8,25.5-88C294.6,81,229.2,13.2,148.4,13z
		 M233.4,267.1l-0.1,0.1c-7.8,7.8-15.9,16-23.9,23.9c-4.2,4.1-8.5,6.2-12.9,6.2c-4.6,0-9-2.3-13.1-6.8c-8.9-9.8-17.6-19.5-26.7-29.7
		c-2.9-3.2-5.8-6.5-8.7-9.8c-1.8,2-3.5,4.1-5.3,6.1c-6.5,7.4-13.2,15.1-19.8,22.6c-3.7,4.2-7.3,8.1-10.9,11.7
		c-3.7,3.8-8,5.8-12.4,5.8c-4.2,0-8.3-1.8-11.9-5.3c-8.9-8.7-17.8-17.6-26.4-26.4c-3.4-3.5-5.2-7.6-5.1-11.9c0.1-4.4,2-8.5,5.6-12
		l0.2-0.2c4.5-4.4,9.2-9,14.2-13.2c0.9-1,6.1-6.6,10.4-10.8c0.6-0.7,1.3-1.4,2.3-2.3c1.9-1.8,3-2.8,3.8-3.3c3.6-4.1,7.4-8,11.2-11.7
		c1-1,2-2,2.9-3c-0.3-0.5-0.7-1-1-1.5c-1.8-2.7-3.6-5.3-5.3-8c-12.2-19.2-19.8-37.4-23.2-55.5c-3.7-19.3,0.2-38.8,11-54.9
		c10.7-16.1,27.2-27,46.2-30.7c4.6-0.9,9.2-1.3,13.8-1.3c16.4,0,32.5,5.8,45.3,16.3c13,10.6,22,25.7,25.4,42.4
		c2.3,11.2,1.7,22.8-1.6,35.7c0,0.8-0.1,1.6-0.3,2.6c-2,11.5-12,28.6-12.4,29.4l-2,3.4l-0.3-0.2c-2.9,5-5.8,10.1-8.7,15
		c-1.4,2.4-2.8,4.7-4.1,7.1c-0.1,0.1-0.1,0.2-0.2,0.3c0.5,0.6,1,1.2,1.6,1.7c3.2,3.2,6.5,6.4,9.7,9.6c10.5,10.4,21.4,21.1,32.2,31.6
		c4.8,4.7,7.1,9.1,7.2,13.7C240,258.2,237.8,262.6,233.4,267.1z"/>
</g>
</svg>
