<svg id="Layer_2" data-name="Layer 2" xmlns="http://www.w3.org/2000/svg" viewBox="0 0 50 50"><defs><style>.cls-1{fill:#fff;}.cls-2{fill:#416326;}</style></defs><title>Untitled-1</title><polygon class="cls-1" points="8.59 15.95 4.81 18.58 8.59 21.48 8.59 15.95"/><polygon class="cls-1" points="3.84 21.46 3.84 42.01 18.18 32.32 3.84 21.46"/><path class="cls-1" d="M20,30.06l5.32,4L28.06,32l10.89-8.2c.12-.09.15-.17.15-.41V6.85H11.44V9.74q0,6.8,0,13.6a.52.52,0,0,0,.26.5Zm-3.28-19h4.67a1.4,1.4,0,1,1,0,2.8H16.65a1.4,1.4,0,1,1,0-2.8ZM16.6,16H33.92A1.48,1.48,0,0,1,35,16.4a1.36,1.36,0,0,1,.39,1,1.41,1.41,0,0,1-1.52,1.39H17l-.14-.32v.32h-.34A1.4,1.4,0,1,1,16.6,16Zm.31,4.89H33.59l.22.32v-.32h.32a1.4,1.4,0,0,1,0,2.77l-.4,0H16.92a1.92,1.92,0,0,1-1.41-.47,1.29,1.29,0,0,1-.35-1C15.16,21.84,15.34,20.87,16.91,20.87Z"/><path class="cls-1" d="M26.18,36.78a1.81,1.81,0,0,1-1.07.5A1.8,1.8,0,0,1,24,36.79l-3.47-2.63-13.35,9H43.31L29.8,34Z"/><polygon class="cls-1" points="41.94 15.99 41.94 21.44 45.73 18.58 41.94 15.99"/><polygon class="cls-1" points="46.13 41.61 46.13 21.49 32.13 32.21 46.13 41.61"/><path class="cls-2" d="M48.3,17.08,45,14.74l-2.83-2a.45.45,0,0,1-.24-.45c0-1.78,0-3.57,0-5.35V6.06A1.85,1.85,0,0,0,39.83,4H10.7A1.86,1.86,0,0,0,8.61,6.06v1c0,1.72,0,3.44,0,5.17a.44.44,0,0,1-.24.44Q5.17,14.89,2,17.1a3.58,3.58,0,0,0-.65.64L1.09,18,1,18.12V44.57l0,.06A2.16,2.16,0,0,0,3.29,46H47.35c1.16,0,1.61-.45,1.63-1.6s0-2,0-3.06V36.52q0-9.05,0-18.11A1.47,1.47,0,0,0,48.3,17.08ZM41.94,16l3.79,2.6-3.79,2.86ZM11.44,9.74V6.85H39.1v16.5c0,.25,0,.32-.15.41L28.06,32l-2.79,2.1-5.32-4-8.26-6.22a.52.52,0,0,1-.26-.5Q11.45,16.54,11.44,9.74ZM8.59,15.95v5.54l-3.78-2.9ZM3.84,21.46,18.19,32.32,3.84,42ZM7.23,43.13l13.35-9L24,36.79a1.8,1.8,0,0,0,1.06.49,1.81,1.81,0,0,0,1.07-.5L29.8,34l13.52,9.14Zm38.9-1.52-14-9.4,14-10.72Z"/><path class="cls-2" d="M16.92,23.67H33.74l.4,0a1.4,1.4,0,0,0,0-2.77h-.32v.32l-.22-.32H16.91c-1.56,0-1.75,1-1.75,1.38a1.29,1.29,0,0,0,.35,1A1.92,1.92,0,0,0,16.92,23.67Z"/><path class="cls-2" d="M16.52,18.77h.34v-.32l.14.32H33.87a1.41,1.41,0,0,0,1.52-1.39,1.36,1.36,0,0,0-.39-1A1.48,1.48,0,0,0,33.92,16H16.6a1.4,1.4,0,1,0-.08,2.8Z"/><path class="cls-2" d="M16.65,13.88h4.72a1.4,1.4,0,1,0,0-2.8H16.67a1.4,1.4,0,1,0,0,2.8Z"/></svg>