<svg id="Layer_2" data-name="Layer 2" xmlns="http://www.w3.org/2000/svg" viewBox="0 0 50 50"><defs><style>.cls-1{fill:#fff;}.cls-2{fill:#416326;}</style></defs><title>Untitled-1</title><path class="cls-1" d="M39,10.6c-.58,0-1.16,0-1.75,0H35.07v.22c0,.6,0,1.18,0,1.77a1.79,1.79,0,0,1-1.84,1.86H16.73a1.73,1.73,0,0,1-1.79-1.79c0-.5,0-1,0-1.52v-.58H11.45a1.91,1.91,0,0,0-2,2.07V43.88a1.44,1.44,0,0,0,1.2,1.59,3.73,3.73,0,0,0,1,.11H38.79a1.66,1.66,0,0,0,1.78-1.91v-31c0-.1,0-.2,0-.3A1.81,1.81,0,0,0,39,10.6ZM21.15,37.36q-2.22,2.15-4.49,4.25a1.57,1.57,0,0,1-1.08.44,1.68,1.68,0,0,1-1.19-.52q-1.14-1.13-2.25-2.3a1.75,1.75,0,0,1,0-2.51,1.59,1.59,0,0,1,1.1-.44,2,2,0,0,1,1.35.58l1,.92.1.1,3-2.84a1.87,1.87,0,0,1,1.28-.57,1.7,1.7,0,0,1,1.06.39,1.74,1.74,0,0,1,.68,1.27A1.58,1.58,0,0,1,21.15,37.36Zm0-8.91q-2.2,2.14-4.45,4.22a1.62,1.62,0,0,1-1.11.46,1.7,1.7,0,0,1-1.19-.52q-1.16-1.15-2.28-2.33A1.81,1.81,0,0,1,11.6,29a1.67,1.67,0,0,1,.53-1.18,1.61,1.61,0,0,1,1.11-.44,1.87,1.87,0,0,1,1.31.58l.91.92.15.16.65-.62,2.37-2.26a1.86,1.86,0,0,1,1.28-.55A1.68,1.68,0,0,1,21,26a1.75,1.75,0,0,1,.67,1.26A1.6,1.6,0,0,1,21.15,28.45Zm0-8.92q-2.22,2.15-4.49,4.25a1.57,1.57,0,0,1-1.08.44,1.68,1.68,0,0,1-1.18-.52q-1.16-1.15-2.28-2.33a1.74,1.74,0,0,1,0-2.48,1.58,1.58,0,0,1,1.1-.44,2,2,0,0,1,1.35.58l1,.95.07.07,3-2.83a1.88,1.88,0,0,1,1.29-.57,1.71,1.71,0,0,1,1.1.43,1.73,1.73,0,0,1,.63,1.25A1.58,1.58,0,0,1,21.15,19.52ZM37.08,40.58a3.32,3.32,0,0,1-.67.06H24.17a1.73,1.73,0,0,1-2-1.63,1.68,1.68,0,0,1,.44-1.25A1.91,1.91,0,0,1,24,37.22H36.56a1.91,1.91,0,0,1,1.38.53,1.71,1.71,0,0,1-.86,2.83ZM22.19,30.09a1.68,1.68,0,0,1,.44-1.25A1.82,1.82,0,0,1,24,28.32H36.56a1.7,1.7,0,1,1,.24,3.4H24.07A1.69,1.69,0,0,1,22.19,30.09ZM37,22.77a3.46,3.46,0,0,1-.56,0H24.12a1.73,1.73,0,0,1-1.92-1.49A1.7,1.7,0,0,1,22.6,20a1.84,1.84,0,0,1,1.4-.58H36.56a1.71,1.71,0,0,1,1.84,1.69A1.67,1.67,0,0,1,37,22.77Z"/><path class="cls-1" d="M31.63,7.76H29.44a1.87,1.87,0,0,1-2.1-1.6,2.56,2.56,0,0,0-2.43-1.9l-.28,0a2.65,2.65,0,0,0-2.16,2,1.82,1.82,0,0,1-2,1.52H18.39V11H31.63Z"/><path class="cls-2" d="M40.09,7.34a7.11,7.11,0,0,0-1.67-.2l-1.71,0H35.07c0-.39,0-.76,0-1.14a1.47,1.47,0,0,0-1.21-1.55A3.79,3.79,0,0,0,33,4.36H30.3a5.28,5.28,0,0,0-3.57-3.11l-.68-.16L25.71,1H24.09l-.21,0-.11,0a5.57,5.57,0,0,0-4.17,3.27H18.15l-1.52,0a1.56,1.56,0,0,0-1.7,1.76v1H11.51A5.32,5.32,0,0,0,6,12.62V33.56Q6,38.79,6,44A4.63,4.63,0,0,0,8.26,48.1a5.69,5.69,0,0,0,3.22.9h27a8.34,8.34,0,0,0,1.23-.1A4.9,4.9,0,0,0,44,44.12q0-15.88,0-31.76A5.25,5.25,0,0,0,40.09,7.34Zm-21.69.42h2.06a1.82,1.82,0,0,0,2-1.52,2.65,2.65,0,0,1,2.16-2l.28,0a2.56,2.56,0,0,1,2.43,1.9,1.87,1.87,0,0,0,2.1,1.6h2.19V11H18.39Zm22.18,35.9a1.66,1.66,0,0,1-1.78,1.91H11.6a3.73,3.73,0,0,1-1-.11,1.44,1.44,0,0,1-1.2-1.59V12.62a1.91,1.91,0,0,1,2-2.07h3.47v.58c0,.51,0,1,0,1.52a1.73,1.73,0,0,0,1.79,1.79h16.5a1.79,1.79,0,0,0,1.84-1.86c0-.59,0-1.18,0-1.77v-.22h2.17c.59,0,1.17,0,1.75,0a1.81,1.81,0,0,1,1.58,1.78c0,.1,0,.2,0,.3Z"/><path class="cls-2" d="M36.56,19.39H24a1.84,1.84,0,0,0-1.4.58,1.7,1.7,0,0,0-.4,1.34,1.73,1.73,0,0,0,1.92,1.49H36.45a3.46,3.46,0,0,0,.56,0,1.67,1.67,0,0,0,1.39-1.69A1.71,1.71,0,0,0,36.56,19.39Z"/><path class="cls-2" d="M36.56,37.22H24a1.91,1.91,0,0,0-1.41.55A1.68,1.68,0,0,0,22.19,39a1.73,1.73,0,0,0,2,1.63H36.41a3.32,3.32,0,0,0,.67-.06,1.71,1.71,0,0,0,.86-2.83A1.91,1.91,0,0,0,36.56,37.22Z"/><path class="cls-2" d="M24.07,31.72H36.81a1.7,1.7,0,1,0-.24-3.4H24a1.82,1.82,0,0,0-1.32.53,1.72,1.72,0,0,0,1.43,2.87Z"/><path class="cls-2" d="M21,26a1.68,1.68,0,0,0-1.06-.39,1.86,1.86,0,0,0-1.28.55l-2.37,2.26-.65.62-.15-.16-.91-.92a1.87,1.87,0,0,0-1.31-.58,1.61,1.61,0,0,0-1.11.44A1.67,1.67,0,0,0,11.6,29a1.81,1.81,0,0,0,.51,1.31q1.12,1.18,2.28,2.33a1.7,1.7,0,0,0,1.19.52,1.62,1.62,0,0,0,1.11-.46q2.25-2.09,4.45-4.22a1.6,1.6,0,0,0,.5-1.23A1.75,1.75,0,0,0,21,26Z"/><path class="cls-2" d="M19.92,16.65a1.88,1.88,0,0,0-1.29.57l-3,2.83L15.59,20l-1-.95a2,2,0,0,0-1.35-.58,1.58,1.58,0,0,0-1.1.44,1.74,1.74,0,0,0,0,2.48q1.12,1.18,2.28,2.33a1.68,1.68,0,0,0,1.18.52,1.57,1.57,0,0,0,1.08-.44q2.27-2.1,4.49-4.25a1.58,1.58,0,0,0,.5-1.2A1.73,1.73,0,0,0,21,17.08,1.71,1.71,0,0,0,19.92,16.65Z"/><path class="cls-2" d="M21,34.87a1.7,1.7,0,0,0-1.06-.39,1.87,1.87,0,0,0-1.28.57l-3,2.84-.1-.1-1-.92a2,2,0,0,0-1.35-.58,1.59,1.59,0,0,0-1.1.44,1.75,1.75,0,0,0,0,2.51q1.11,1.16,2.25,2.3a1.68,1.68,0,0,0,1.19.52,1.57,1.57,0,0,0,1.08-.44q2.27-2.11,4.49-4.25a1.58,1.58,0,0,0,.5-1.22A1.74,1.74,0,0,0,21,34.87Z"/></svg>