<svg id="Layer_2" data-name="Layer 2" xmlns="http://www.w3.org/2000/svg" viewBox="0 0 50 50"><defs><style>.cls-1{fill:#416326;}</style></defs><title>Untitled-1</title><path class="cls-1" d="M5.17,39.15c.17.75,1.46,1.13,2.66,1.13.81,0,2.55-.36,2.55-1.5s-1.26-1.11-2.6-1.21c-1.79-.17-3.7-.32-3.7-2.35,0-1.77,2-2.53,3.6-2.53,1.27,0,3,.21,3.62,1.7.23.74-.91,1.06-1.13.43-.36-1-1.75-1-2.5-1-1,0-2.4.41-2.4,1.44s1.22,1,2.55,1.14c1.82.17,3.75.33,3.75,2.4s-2.38,2.6-3.75,2.6S4.34,41,4,39.37A.59.59,0,0,1,5.17,39.15Z"/><path class="cls-1" d="M18.56,32.85A4.1,4.1,0,0,1,21.62,37v0c0,.36-.13.76-.81.76H14.28a3,3,0,0,0,3,2.48,3.59,3.59,0,0,0,2.2-.7c.58-.53,1.44.15.79.81a4.22,4.22,0,0,1-2.94,1A4.28,4.28,0,0,1,14,39.87c-1.79-2.35-1-6.15,2.07-7a4.65,4.65,0,0,1,2.48,0Zm-4.33,3.89h6.23a3,3,0,0,0-2.27-2.81h0a3.43,3.43,0,0,0-1.78,0A3,3,0,0,0,14.23,36.74Z"/><path class="cls-1" d="M30.47,36.38a2.56,2.56,0,0,0-2.56-2.58,3,3,0,0,0-3.11,2.83v4.12a.55.55,0,0,1-.59.59.57.57,0,0,1-.63-.59V30.84c0-.71,1.22-.69,1.22,0v3.47a3.38,3.38,0,0,1,3.13-1.64,3.61,3.61,0,0,1,3.75,3.7v4.37a.55.55,0,0,1-.6.59.57.57,0,0,1-.61-.59Z"/><path class="cls-1" d="M36.09,33a4,4,0,0,1,1.77-.31A3,3,0,0,1,40.47,34v-.63a.55.55,0,0,1,.6-.59.58.58,0,0,1,.61.59v7.34a.57.57,0,0,1-.61.59.55.55,0,0,1-.6-.59v-.79a3.12,3.12,0,0,1-2.68,1.5,4.17,4.17,0,0,1-2.38-.71,4.38,4.38,0,0,1-1.85-3.89A4.09,4.09,0,0,1,36.11,33Zm4.38,4.68V36.41a2.47,2.47,0,0,0-2.63-2.55A3,3,0,0,0,35,35.63a3.6,3.6,0,0,0-.25,1.23A3.36,3.36,0,0,0,36,39.67a3.21,3.21,0,0,0,1.7.63A2.61,2.61,0,0,0,40.47,37.72Z"/><path class="cls-1" d="M47.9,32.82a.52.52,0,1,1,0,1H46.1v4.46c0,.94.15,1.94,1.27,1.94a1.85,1.85,0,0,0,.78-.18.56.56,0,1,1,.5,1,2.46,2.46,0,0,1-1.27.28c-2,0-2.46-1.45-2.46-3V33.86H43.81a.52.52,0,1,1,0-1h1.09V30.9a.6.6,0,0,1,1.19,0v1.92Z"/><path class="cls-1" d="M35.77,29.08q-.79,0-.85-.85v-.85q0-.57-.28-.57a.9.9,0,0,0-.57.28,7.69,7.69,0,0,1-5.21,2A7.5,7.5,0,0,1,24,27.39,7.76,7.76,0,0,1,21.27,23c-.13-.57.16-.85.85-.85.52,0,.81.28.85.85a6.18,6.18,0,0,0,2.23,3.16,5.89,5.89,0,0,0,3.65,1.23,6.06,6.06,0,0,0,6.06-6.06,6.06,6.06,0,0,0-9.73-4.83A5.86,5.86,0,0,0,23,19.64q-.19.85-.92.85c-.7,0-1-.28-.85-.85a7.71,7.71,0,0,1,7.58-6.09,7.11,7.11,0,0,1,4.9,1.71l.28.25a1,1,0,0,0,.6.32c.17,0,.26-.19.28-.57V14.4c0-.57.33-.85.85-.85s.81.29.85.85V28.23C36.58,28.8,36.29,29.08,35.77,29.08Z"/><path class="cls-1" d="M40.32,13.51a.83.83,0,0,1,.92.89V20l6.22-6.25a1,1,0,0,1,.66-.28.84.84,0,0,1,.6.28.84.84,0,0,1,0,1.26l-6.22,6.25,6.22,6.22a1,1,0,0,1,.29.66,1,1,0,0,1-.88.88,1,1,0,0,1-.66-.28l-6.22-6.25V28.2a.83.83,0,0,1-.92.88q-.82,0-.88-.89V14.4Q39.49,13.51,40.32,13.51Z"/><path class="cls-1" d="M10.9,29.36a8,8,0,0,0,8-8V8.56H17.32V21.39a6.41,6.41,0,0,1-12.83,0V18H2.94v3.36A8,8,0,0,0,10.9,29.36Z"/><circle class="cls-1" cx="3.71" cy="19.27" r="2.71"/></svg>