<svg version="1.0" xmlns="http://www.w3.org/2000/svg"
 width="512.000000pt" height="512.000000pt" viewBox="0 0 512.000000 512.000000"
 preserveAspectRatio="xMidYMid meet">
<defs><style>.cls-1{fill:#fff;}.cls-2{fill:#416326;}</style></defs>
<g transform="translate(0.000000,512.000000) scale(0.100000,-0.100000)" stroke="none">
<path d="M526 5029 l-26 -20 0 -2449 0 -2449 26 -20 27 -21 2007 0 2007 0 27
21 26 20 0 2449 0 2449 -26 20 -27 21 -2007 0 -2007 0 -27 -21z m3944 -2469
l0 -2330 -1910 0 -1910 0 0 2330 0 2330 1910 0 1910 0 0 -2330z"/>
<path d="M1265 4701 c-32 -13 -42 -32 -50 -91 -20 -155 -121 -257 -275 -278
-112 -16 -100 196 -100 -1772 0 -1967 -12 -1758 98 -1770 151 -18 257 -125
277 -278 4 -28 15 -62 25 -75 l18 -22 1302 0 1302 0 18 22 c10 13 21 47 25 75
20 153 126 260 277 278 110 12 98 -197 98 1770 0 1968 12 1756 -100 1772 -153
20 -255 123 -275 276 -4 28 -15 62 -25 75 l-18 22 -1289 2 c-708 1 -1297 -2
-1308 -6z m2495 -166 c0 -8 9 -39 21 -70 44 -119 158 -227 282 -267 l67 -22 0
-1616 0 -1616 -57 -18 c-79 -25 -131 -57 -192 -118 -53 -53 -106 -145 -117
-204 l-6 -34 -1198 0 -1198 0 -6 34 c-11 59 -64 151 -117 204 -61 61 -113 93
-191 118 l-58 18 0 1616 0 1615 69 24 c125 43 236 148 280 266 12 31 21 62 21
70 0 13 154 15 1200 15 1046 0 1200 -2 1200 -15z"/>
<path d="M2385 4337 c-16 -8 -47 -32 -67 -55 -82 -91 -57 -235 64 -368 56 -61
139 -114 178 -114 39 0 122 53 178 114 123 135 146 278 60 372 -48 52 -94 68
-169 60 -63 -7 -64 -7 -149 -1 -42 3 -75 0 -95 -8z m120 -157 c39 -26 67 -25
116 3 l40 22 19 -23 c19 -23 17 -52 -10 -102 -21 -39 -92 -110 -110 -110 -18
0 -89 71 -110 110 -24 46 -29 77 -13 99 18 26 30 26 68 1z"/>
<path d="M2205 3612 c-209 -72 -338 -280 -305 -489 44 -280 318 -448 586 -358
l74 25 74 -25 c268 -90 542 78 586 358 29 187 -72 378 -249 465 -73 36 -77 37
-190 37 -99 0 -123 -3 -165 -23 l-49 -22 -73 25 c-89 31 -212 34 -289 7z m187
-138 l37 -6 -25 -38 c-88 -133 -94 -337 -14 -464 17 -26 30 -50 30 -55 0 -14
-81 -20 -132 -11 -219 42 -313 308 -167 474 73 82 167 117 271 100z m517 -28
c246 -125 194 -494 -77 -546 -51 -9 -132 -3 -132 11 0 5 13 29 30 55 80 128
74 331 -14 465 l-25 38 27 4 c55 10 142 -3 191 -27z m-306 -136 c26 -50 28
-63 25 -136 -4 -66 -9 -90 -32 -127 -15 -26 -31 -47 -36 -47 -5 0 -21 21 -36
46 -31 53 -44 168 -25 225 17 51 50 101 64 97 7 -2 25 -28 40 -58z"/>
<path d="M1315 2488 c-51 -29 -60 -84 -20 -123 l24 -25 1241 0 1241 0 24 25
c40 40 30 96 -22 123 -31 17 -2459 17 -2488 0z"/>
<path d="M1295 2135 c-47 -47 -21 -117 47 -130 18 -3 201 -5 406 -3 l374 3 25
29 c29 35 26 80 -8 109 -19 16 -55 17 -421 17 l-399 0 -24 -25z"/>
<path d="M2296 2139 c-34 -27 -37 -86 -5 -115 20 -18 49 -19 738 -22 394 -2
731 0 749 3 68 13 94 83 47 130 l-24 25 -739 0 c-733 0 -740 0 -766 -21z"/>
<path d="M1291 1794 c-28 -35 -26 -69 4 -99 l24 -25 909 0 909 0 21 23 c28 30
29 80 2 107 -20 20 -33 20 -934 20 l-915 0 -20 -26z"/>
<path d="M3292 1797 c-28 -29 -28 -67 -1 -101 l20 -26 245 0 245 0 24 25 c30
30 32 64 4 99 l-20 26 -248 0 c-246 0 -248 0 -269 -23z"/>
<path d="M2256 1475 c-136 -48 -179 -234 -85 -367 28 -39 16 -48 -67 -48 -47
0 -65 -5 -82 -20 -30 -29 -33 -81 -5 -112 33 -37 168 -31 267 12 41 17 48 17
93 4 102 -32 230 8 306 97 23 27 45 49 49 49 3 0 11 -15 17 -33 29 -88 124
-129 199 -87 32 18 43 20 60 11 51 -27 116 11 114 68 -1 41 -16 59 -67 82 -48
22 -96 24 -134 5 -27 -15 -28 -14 -49 29 -34 70 -93 98 -171 82 -36 -7 -57
-21 -105 -72 -53 -55 -92 -85 -110 -85 -3 0 8 25 25 56 70 135 8 286 -135 329
-60 18 -70 18 -120 0z m109 -170 c14 -13 25 -33 25 -43 0 -16 -36 -79 -57
-102 -9 -10 -43 42 -53 82 -21 75 34 115 85 63z"/>
</g>
</svg>
