<svg id="Layer_2" data-name="Layer 2" xmlns="http://www.w3.org/2000/svg" viewBox="0 0 50 50"><defs><style>.cls-1{fill:#fff;}.cls-2{fill:#416326;}</style></defs><title>Untitled-1</title><path class="cls-1" d="M43.81,4.36H31.71c-1.26,0-1.83.56-1.83,1.83q0,6,0,12.1c0,1.31.54,1.84,1.85,1.84H43.82c1.26,0,1.82-.57,1.82-1.84V6.19C45.64,4.93,45.08,4.36,43.81,4.36Z"/><path class="cls-1" d="M6.23,20.13H18.28c1.31,0,1.85-.53,1.85-1.85v-7.5q0-2.28,0-4.55a3.18,3.18,0,0,0-.07-.76,1.57,1.57,0,0,0-1.67-1.12H6.25c-1.32,0-1.88.56-1.88,1.88v12C4.36,19.58,4.9,20.13,6.23,20.13Z"/><path class="cls-1" d="M18.29,29.87h-12a3.15,3.15,0,0,0-.76.06,1.57,1.57,0,0,0-1.12,1.67q0,6.07,0,12.14c0,1.32.56,1.88,1.88,1.88h12c1.34,0,1.89-.54,1.89-1.86q0-6,0-12.05C20.13,30.41,19.6,29.87,18.29,29.87Z"/><path class="cls-2" d="M1.52,20.71A4.8,4.8,0,0,0,6.17,23.5H18.32a5.69,5.69,0,0,0,1.47-.17,4.81,4.81,0,0,0,3.71-4.84c0-4.16,0-8.31,0-12.47a4.87,4.87,0,0,0-2-4A5.7,5.7,0,0,0,19.2,1l-.07,0H5.46L5.3,1l-.11,0A4.8,4.8,0,0,0,1,6c0,5,0,8.93,0,12.61A5.27,5.27,0,0,0,1.52,20.71ZM4.36,6.23c0-1.31.56-1.88,1.88-1.88H18.39a1.57,1.57,0,0,1,1.67,1.12,3.18,3.18,0,0,1,.07.76q0,2.27,0,4.55v7.5c0,1.31-.54,1.85-1.85,1.85H6.23c-1.32,0-1.86-.55-1.86-1.89Z"/><path class="cls-2" d="M47.89,2.8a4.78,4.78,0,0,0-3-1.72l-.18.59,0-.64-.09,0H30.85l-.09,0-.42.12a5.53,5.53,0,0,0-1,.36,4.8,4.8,0,0,0-2.78,4.56q0,6.19,0,12.37a5.08,5.08,0,0,0,.16,1.33,4.84,4.84,0,0,0,4.88,3.72H43.93a4.91,4.91,0,0,0,4.09-2,5.73,5.73,0,0,0,1-2.33V5.33A5.51,5.51,0,0,0,47.89,2.8ZM45.64,18.29c0,1.27-.56,1.84-1.82,1.84H31.73c-1.32,0-1.85-.53-1.85-1.84q0-6.05,0-12.1c0-1.26.57-1.83,1.83-1.83h12.1c1.27,0,1.84.57,1.84,1.83Z"/><path class="cls-2" d="M23.33,30.2a4.88,4.88,0,0,0-4.94-3.7H6.11a5.26,5.26,0,0,0-1.37.16A4.8,4.8,0,0,0,1,31.5C1,36,1,40,1,44a5.32,5.32,0,0,0,.49,2.19A4.7,4.7,0,0,0,6,49H18.36a5.74,5.74,0,0,0,1.47-.17,4.85,4.85,0,0,0,3.68-4.91q0-6.16,0-12.33A5.38,5.38,0,0,0,23.33,30.2Zm-3.2,13.57c0,1.32-.55,1.86-1.89,1.86h-12c-1.31,0-1.88-.56-1.88-1.88q0-6.07,0-12.14a1.57,1.57,0,0,1,1.12-1.67,3.15,3.15,0,0,1,.76-.06h12c1.31,0,1.84.54,1.84,1.85Q20.13,37.75,20.13,43.77Z"/><path class="cls-2" d="M42.93,36.07h-3.5V32.51a1.66,1.66,0,0,0-1-1.59,1.76,1.76,0,0,0-.74-.17,1.39,1.39,0,0,0-1.09.51,2.37,2.37,0,0,0-.52,1.34c0,.87,0,1.74,0,2.6v.86H34.5l-1.87,0a2.4,2.4,0,0,0-1.34.5,1.49,1.49,0,0,0-.38,1.82,1.63,1.63,0,0,0,1.58,1h3.58v3.32a3.31,3.31,0,0,0,0,.58,1.64,1.64,0,0,0,1.64,1.41h.09a1.62,1.62,0,0,0,1.58-1.59c0-.44,0-.88,0-1.32V39.42H43a1.77,1.77,0,0,0,1.38-.63,1.66,1.66,0,0,0,.31-1.4A1.68,1.68,0,0,0,42.93,36.07Z"/></svg>