<svg id="Layer_2" data-name="Layer 2" xmlns="http://www.w3.org/2000/svg" viewBox="0 0 50 50"><defs><style>.cls-1{fill:#416326;}.cls-1,.cls-2{fill-rule:evenodd;}.cls-2{fill:#fff;}</style></defs><title>Untitled-1</title><path class="cls-1" d="M49,25.74a22.2,22.2,0,0,1-.88,2.44A5.77,5.77,0,0,1,47,29.65q-6.24,6.28-12.52,12.53A6.4,6.4,0,0,1,24.25,41a6.27,6.27,0,0,1,.81-7.43c2.65-2.74,5.37-5.41,8.07-8.1a5.31,5.31,0,0,1,.46-.38l-.4-.43q-3.89-3.89-7.78-7.79a6.39,6.39,0,0,1,8.54-9.51c.24.2.46.42.68.64q6.11,6.11,12.23,12.22a6.65,6.65,0,0,1,2.08,3.94s0,.08.07.12ZM38.07,25l-.39.41-9.87,9.87a6.48,6.48,0,0,0-.59.67,3.18,3.18,0,0,0,.49,4.27,3.27,3.27,0,0,0,4.52-.32q6.24-6.22,12.46-12.46a4,4,0,0,0,.64-.8,3.19,3.19,0,0,0-.67-4.09L32.27,10.14a6.26,6.26,0,0,0-.6-.52,3.2,3.2,0,0,0-4,5c1.87,1.89,3.75,3.76,5.63,5.63Z"/><path class="cls-1" d="M1,11.49A15.09,15.09,0,0,1,2,8.88,6.35,6.35,0,0,1,11.6,7.37l.21.19c4.35,4.35,8.74,8.66,13,13.07a6.22,6.22,0,0,1,0,8.73c-1.41,1.5-2.9,2.93-4.36,4.39l-8.41,8.41a6.36,6.36,0,0,1-7.52,1.36A6.22,6.22,0,0,1,1.09,38.8,2.86,2.86,0,0,0,1,38.49V37.09a.74.74,0,0,0,.07-.17,6.7,6.7,0,0,1,2.11-4c2.54-2.51,5.06-5,7.59-7.58l.37-.39-.37-.38Q6.91,20.75,3.05,16.9a6.65,6.65,0,0,1-1.91-3.37c0-.21-.09-.42-.15-.63ZM15.77,25c-.25.21-.38.32-.5.43L5.43,35.24a6.83,6.83,0,0,0-.59.66,3.17,3.17,0,0,0,.53,4.33,3.27,3.27,0,0,0,4.49-.37L22.28,27.43a4.17,4.17,0,0,0,.65-.8,3.19,3.19,0,0,0-.64-4.09L9.83,10.09a6.06,6.06,0,0,0-.46-.4A3.2,3.2,0,0,0,5.3,14.62l10,10A5.12,5.12,0,0,0,15.77,25Z"/><path class="cls-2" d="M38.07,25,33.29,20.2c-1.88-1.87-3.76-3.75-5.63-5.63a3.2,3.2,0,0,1,4-5,6.26,6.26,0,0,1,.6.52L44.67,22.53a3.19,3.19,0,0,1,.67,4.09,4,4,0,0,1-.64.8q-6.22,6.24-12.46,12.46a3.27,3.27,0,0,1-4.52.32,3.18,3.18,0,0,1-.49-4.27,6.48,6.48,0,0,1,.59-.67l9.87-9.87Z"/><path class="cls-2" d="M15.77,25a5.12,5.12,0,0,1-.5-.37l-10-10A3.2,3.2,0,0,1,9.37,9.69a6.06,6.06,0,0,1,.46.4L22.29,22.55a3.19,3.19,0,0,1,.64,4.09,4.17,4.17,0,0,1-.65.8L9.85,39.87a3.27,3.27,0,0,1-4.49.37,3.17,3.17,0,0,1-.53-4.33,6.83,6.83,0,0,1,.59-.66l9.84-9.84C15.39,25.28,15.53,25.17,15.77,25Z"/></svg>