<svg id="Layer_2" data-name="Layer 2" xmlns="http://www.w3.org/2000/svg" viewBox="0 0 50 50"><defs><style>.cls-1{fill:#fff;}.cls-2{fill:#416326;}</style></defs><title>Untitled-1</title><path class="cls-1" d="M41.28,40a24.12,24.12,0,0,1-4.46-12.58c-.12-2-.05-4.06-.1-6.09a16,16,0,0,0-.18-2.19,11.71,11.71,0,0,0-23.25,2.07c0,1.58,0,3.16,0,4.73A24.72,24.72,0,0,1,9.19,39.35c-.25.39-.52.76-.81,1.19h33.2a.59.59,0,0,0,0-.13Z"/><path class="cls-1" d="M26.41,6.65c0-.19,0-.36,0-.53,0-.34,0-.69,0-1A1.41,1.41,0,0,0,25,3.81,1.39,1.39,0,0,0,23.62,5a15.72,15.72,0,0,0,0,1.65Z"/><path class="cls-1" d="M25.25,46.18c1.67-.09,3.45-1.44,3.65-2.78H21.09A4.12,4.12,0,0,0,25.25,46.18Z"/><path class="cls-2" d="M43.73,38.62a21.12,21.12,0,0,1-4.1-11.23c-.12-2,0-4.06-.11-6.09a17.15,17.15,0,0,0-.43-3.61,14.27,14.27,0,0,0-9.47-10.3c-.29-.11-.42-.22-.4-.55,0-.59,0-1.19,0-1.78a4.23,4.23,0,0,0-3.89-4,4.17,4.17,0,0,0-4.45,3.45,15.89,15.89,0,0,0-.09,2.43c0,.29-.11.39-.36.49a20.86,20.86,0,0,0-2.72,1.23,14.06,14.06,0,0,0-7.14,11.1c-.19,1.89,0,3.81-.12,5.71A33.25,33.25,0,0,1,10,30a21.46,21.46,0,0,1-5.6,10.88l-.06.07A1.38,1.38,0,0,0,4,42.52a1.42,1.42,0,0,0,1.43.86H18.1l.11.4A6.83,6.83,0,0,0,22,48.3a16,16,0,0,0,2.26.7h1.5a2.08,2.08,0,0,1,.26-.08,6.92,6.92,0,0,0,5.43-4.17c.2-.43.32-.9.48-1.37H44.45a1.44,1.44,0,0,0,1.13-2.53C44.95,40.12,44.3,39.4,43.73,38.62ZM23.62,5A1.39,1.39,0,0,1,25,3.81,1.41,1.41,0,0,1,26.4,5.1c0,.34,0,.69,0,1,0,.17,0,.34,0,.53h-2.8A15.72,15.72,0,0,1,23.62,5Zm1.63,41.18a4.12,4.12,0,0,1-4.16-2.78H28.9C28.7,44.74,26.92,46.1,25.25,46.18ZM8.38,40.54c.29-.43.55-.81.81-1.19A24.72,24.72,0,0,0,13.28,26c0-1.58,0-3.15,0-4.73a11.71,11.71,0,0,1,23.25-2.07,16,16,0,0,1,.18,2.19c0,2,0,4.07.1,6.09A24.12,24.12,0,0,0,41.28,40l.27.38a.59.59,0,0,1,0,.13Z"/><path class="cls-2" d="M5.17,22.56a1.42,1.42,0,0,0,1.51-1.12,3,3,0,0,0,0-.56,18,18,0,0,1,3.87-11c.47-.6,1-1.15,1.51-1.72a1.37,1.37,0,0,0,.25-1.53,1.26,1.26,0,0,0-1.1-.82,1.59,1.59,0,0,0-1.3.53A21.27,21.27,0,0,0,6,12a20.94,20.94,0,0,0-2.09,9.14A1.41,1.41,0,0,0,5.17,22.56Z"/><path class="cls-2" d="M38.27,8.59a17.33,17.33,0,0,1,4.47,8.25,36.73,36.73,0,0,1,.53,4.31,1.46,1.46,0,0,0,1.35,1.42,1.41,1.41,0,0,0,1.45-1.2,5.24,5.24,0,0,0,0-.75A20.94,20.94,0,0,0,40,6.29a1.4,1.4,0,1,0-2,1.92Z"/></svg>