<svg id="Layer_2" data-name="Layer 2" xmlns="http://www.w3.org/2000/svg" viewBox="0 0 50 50"><defs><style>.cls-1{fill:#fcfdf8;}.cls-2{fill:#416326;}</style></defs><title>Untitled-1</title><path class="cls-1" d="M42.39,4.5c-1.31-.61-3.29.64-4.23,2.66L27.92,29.31a5.52,5.52,0,0,1-4.15,3.4,5.51,5.51,0,0,1-4.9-2.19l-7.05-8.37a4.93,4.93,0,0,0-3.5-1.87A2,2,0,0,0,7,20.7a2.38,2.38,0,0,0-.67,1.95,5.32,5.32,0,0,0,1.29,3l16,19a2.31,2.31,0,0,0,1.89,1,2.3,2.3,0,0,0,1.55-1.48L43.1,9.45a5.31,5.31,0,0,0,.45-3.25A2.37,2.37,0,0,0,42.39,4.5Z"/><path class="cls-2" d="M43.8,1.46c-3-1.41-6.94.52-8.68,4.3L24.87,27.9a2.3,2.3,0,0,1-1.55,1.49,2.3,2.3,0,0,1-1.89-1L14.38,20c-2.68-3.18-6.95-4-9.51-1.85A5.62,5.62,0,0,0,3,22.83a8.59,8.59,0,0,0,2.07,5l16,19A5.71,5.71,0,0,0,25.35,49a4.86,4.86,0,0,0,.6,0,5.51,5.51,0,0,0,4.15-3.4l16-34.7a8.61,8.61,0,0,0,.68-5.36A5.61,5.61,0,0,0,43.8,1.46Zm-.69,8L27.05,44.15a2.3,2.3,0,0,1-1.55,1.48,2.31,2.31,0,0,1-1.89-1l-16-19a5.32,5.32,0,0,1-1.29-3A2.38,2.38,0,0,1,7,20.7a2,2,0,0,1,1.28-.42,4.93,4.93,0,0,1,3.5,1.87l7.05,8.37a5.51,5.51,0,0,0,4.9,2.19,5.52,5.52,0,0,0,4.15-3.4L38.16,7.16c.94-2,2.92-3.27,4.23-2.66a2.37,2.37,0,0,1,1.16,1.7A5.31,5.31,0,0,1,43.1,9.45Z"/></svg>