<svg id="Layer_2" data-name="Layer 2" xmlns="http://www.w3.org/2000/svg" viewBox="0 0 50 50"><defs><style>.cls-1{fill:#416326;}</style></defs><title>Untitled-1</title><path class="cls-1" d="M49,35.5A5.33,5.33,0,0,1,47.33,38c-2.59,2.56-5.15,5.15-7.73,7.72a3.36,3.36,0,0,1-4.51.43,3.8,3.8,0,0,1-.42-.37c-2.81-2.8-5.62-5.6-8.42-8.42a3.35,3.35,0,0,1,1.4-5.66,3.23,3.23,0,0,1,3.32.87c.89.87,1.76,1.77,2.75,2.76v-.65q0-14,0-27.94a3.37,3.37,0,1,1,6.74-.31c0,3.66,0,7.31,0,11q0,8.63,0,17.25v.6a3.87,3.87,0,0,0,.31-.24c.76-.76,1.55-1.5,2.28-2.29a3.38,3.38,0,0,1,5.86,1.52s.05.07.08.11Z"/><path class="cls-1" d="M30.52,21v5.3c-.13,0-.25,0-.37,0H3.81A2.69,2.69,0,0,1,1,23.84,2.66,2.66,0,0,1,3.72,21h26.8Z"/><path class="cls-1" d="M30.51,10.27V15.6H4a2.71,2.71,0,0,1-3-2.69,2.64,2.64,0,0,1,2.58-2.63c1.09,0,2.19,0,3.28,0H30.51Z"/><path class="cls-1" d="M22.88,31.66A6.74,6.74,0,0,0,22.32,37H3.81a2.67,2.67,0,1,1-.23-5.33c.73,0,1.47,0,2.2,0h17.1Z"/></svg>