<svg xmlns="http://www.w3.org/2000/svg" version="1.0" preserveAspectRatio="xMidYMid meet" viewBox="16.03 1 67.97 98">

<g transform="translate(0.000000,100.000000) scale(0.100000,-0.100000)" stroke="none">
<path d="M191 971 c-25 -25 -35 -75 -29 -153 4 -51 9 -65 31 -84 l27 -23 0 -351 c0 -337 1 -350 19 -350 10 0 22 7 25 16 3 9 6 166 6 349 l0 334 25 25 c23 23 25 32 25 116 0 83 -2 93 -25 115 -30 30 -77 33 -104 6z"/>
<path d="M490 970 c0 -11 7 -20 15 -20 12 0 15 -60 17 -423 3 -388 4 -425 21 -450 57 -87 186 -89 237 -4 19 30 20 53 20 450 0 410 0 419 20 424 11 3 20 14 20 24 0 18 -10 19 -175 19 -168 0 -175 -1 -175 -20z m130 -289 c0 -138 -7 -166 -36 -154 -19 7 -21 299 -1 306 31 11 37 -15 37 -152z m-5 -276 c0 -23 -4 -30 -20 -30 -15 0 -21 8 -23 33 -3 30 -1 33 20 30 18 -2 23 -9 23 -33z"/>
</g>
</svg>