<svg id="Layer_2" data-name="Layer 2" xmlns="http://www.w3.org/2000/svg" viewBox="0 0 50 50"><defs><style>.cls-1{fill:#416326;}.cls-1,.cls-2{fill-rule:evenodd;}.cls-2{fill:#fff;}</style></defs><title>Untitled-1</title><path class="cls-1" d="M1,10.28A6.75,6.75,0,0,1,2.25,7.34,5.83,5.83,0,0,1,6.76,5C7.85,5,8.95,5,10,5a2,2,0,0,1,2,2,2,2,0,0,1-1.94,2C9.1,9,8.15,9,7.2,9A2,2,0,0,0,5,11.18C5,12,5,12.9,5,13.76A2,2,0,0,1,3.34,16a2,2,0,0,1-2.28-1.5s0,0-.06-.07Z"/><path class="cls-1" d="M1,35.59a2.25,2.25,0,0,1,1.28-1.46A2,2,0,0,1,5,36.05c0,.94,0,1.88,0,2.81A2,2,0,0,0,7.15,41H9.91a2,2,0,1,1,0,4,30.06,30.06,0,0,1-4-.13A5.87,5.87,0,0,1,1.1,40.07a3.48,3.48,0,0,0-.1-.35Z"/><path class="cls-1" d="M49,39.72a6.79,6.79,0,0,1-1.25,2.94A5.83,5.83,0,0,1,43.24,45c-1.08,0-2.15,0-3.23,0a2,2,0,1,1,0-4c.92,0,1.84,0,2.76,0A2,2,0,0,0,45,38.82c0-.86,0-1.72,0-2.58A2.05,2.05,0,0,1,46.66,34a2,2,0,0,1,2.29,1.49.3.3,0,0,0,.05.08Z"/><path class="cls-1" d="M49,14.41a1.14,1.14,0,0,0-.08.16A2,2,0,0,1,45,13.94c0-1,0-2,0-3a1.92,1.92,0,0,0-1.35-1.83A3.16,3.16,0,0,0,42.76,9c-1,0-1.91,0-2.86,0A1.94,1.94,0,0,1,38,7.27a2,2,0,0,1,1.43-2.2.55.55,0,0,1,.14,0,28.05,28.05,0,0,1,4.8.17A5.64,5.64,0,0,1,48.9,9.92c0,.12.06.24.1.36Z"/><path class="cls-1" d="M25,12.85c5.64.16,10.34,2.23,13.72,6.9a13.37,13.37,0,0,1,2.17,4.74,2.33,2.33,0,0,1,0,1.14A14.88,14.88,0,0,1,30.46,36.25c-6.53,2-12.48.78-17.51-4a13.53,13.53,0,0,1-3.81-6.61,2.56,2.56,0,0,1,0-1.27,15.2,15.2,0,0,1,9.78-10.44A17,17,0,0,1,25,12.85ZM31,25a6,6,0,1,0-6,6A6,6,0,0,0,31,25Z"/><path class="cls-2" d="M31,25a6,6,0,1,1-6-6A6,6,0,0,1,31,25Z"/></svg>