<svg id="Layer_2" data-name="Layer 2" xmlns="http://www.w3.org/2000/svg" viewBox="0 0 50 50"><defs><style>.cls-1{fill:#416326;}.cls-1,.cls-2{fill-rule:evenodd;}.cls-2{fill:#fff;}</style></defs><title>Untitled-1</title><path class="cls-1" d="M1,24.26a22.35,22.35,0,0,1,.88-2.44A5.77,5.77,0,0,1,3,20.35Q9.27,14.07,15.54,7.82A6.4,6.4,0,0,1,25.75,9a6.28,6.28,0,0,1-.81,7.43c-2.65,2.74-5.37,5.41-8.07,8.1a4.85,4.85,0,0,1-.46.38l.4.43q3.89,3.89,7.78,7.79a6.39,6.39,0,0,1-8.54,9.51c-.24-.2-.46-.42-.68-.64Q9.26,35.92,3.14,29.81a6.65,6.65,0,0,1-2.08-3.94s0-.08-.07-.12ZM11.93,25l.39-.4,9.87-9.88a6.45,6.45,0,0,0,.59-.66,3.18,3.18,0,0,0-.49-4.27,3.27,3.27,0,0,0-4.52.32L5.3,22.58a4,4,0,0,0-.64.8,3.19,3.19,0,0,0,.67,4.09L17.73,39.86a6.31,6.31,0,0,0,.6.53,3.2,3.2,0,0,0,4-5c-1.87-1.89-3.75-3.76-5.63-5.63Z"/><path class="cls-1" d="M49,38.51a15.06,15.06,0,0,1-1,2.61,6.35,6.35,0,0,1-9.64,1.51l-.21-.18c-4.35-4.35-8.74-8.66-13-13.07a6.22,6.22,0,0,1,0-8.72c1.41-1.51,2.9-2.93,4.36-4.39l8.41-8.41a6.36,6.36,0,0,1,7.52-1.36,6.22,6.22,0,0,1,3.47,4.71,2.62,2.62,0,0,0,.09.31v1.41a.77.77,0,0,0-.07.17,6.72,6.72,0,0,1-2.11,4c-2.54,2.51-5.06,5-7.59,7.58l-.37.39.37.38q3.86,3.86,7.72,7.71a6.65,6.65,0,0,1,1.91,3.37c0,.21.09.42.15.63ZM34.23,25c.25-.21.38-.32.5-.43l9.84-9.84a6.83,6.83,0,0,0,.59-.66,3.18,3.18,0,0,0-.53-4.34,3.28,3.28,0,0,0-4.49.37L27.72,22.56a4.18,4.18,0,0,0-.65.8,3.19,3.19,0,0,0,.64,4.09L40.17,39.91a5.55,5.55,0,0,0,.46.4,3.2,3.2,0,0,0,4.07-4.93l-10-10A5.69,5.69,0,0,0,34.23,25Z"/><path class="cls-2" d="M11.93,25l4.78,4.78c1.88,1.88,3.76,3.75,5.63,5.63a3.2,3.2,0,0,1-4,5,6.31,6.31,0,0,1-.6-.53L5.33,27.47a3.19,3.19,0,0,1-.67-4.09,4,4,0,0,1,.64-.8L17.76,10.12a3.27,3.27,0,0,1,4.52-.32,3.18,3.18,0,0,1,.49,4.27,6.45,6.45,0,0,1-.59.66l-9.87,9.88Z"/><path class="cls-2" d="M34.23,25a5.69,5.69,0,0,1,.5.37l10,10a3.2,3.2,0,0,1-4.07,4.93,5.55,5.55,0,0,1-.46-.4L27.71,27.45a3.19,3.19,0,0,1-.64-4.09,4.18,4.18,0,0,1,.65-.8L40.15,10.14a3.28,3.28,0,0,1,4.49-.37,3.18,3.18,0,0,1,.53,4.34,6.83,6.83,0,0,1-.59.66l-9.84,9.84C34.61,24.72,34.47,24.83,34.23,25Z"/></svg>