<svg id="Layer_2" data-name="Layer 2" xmlns="http://www.w3.org/2000/svg" viewBox="0 0 50 50"><defs><style>.cls-1{fill:#fcfdf8;}.cls-2{fill:#416326;}</style></defs><title>Untitled-1</title><path class="cls-1" d="M24.77,21.26a8.59,8.59,0,0,0,8.62-8.68,8.7,8.7,0,1,0-17.4,0A8.61,8.61,0,0,0,24.77,21.26Z"/><path class="cls-1" d="M33,28c-5.32,3.44-10.63,3.48-16,.06-2.41-1.54-4.49-1.17-6.3,1.14C8.36,32.32,8,36,7.82,39.68c-.17,4.59,1.6,6.42,6.16,6.49,3.68.06,7.37,0,11.05,0v-.09c4.12,0,8.24.06,12.36,0,2.19,0,4.07-1.11,4.45-3.31.86-4.94.27-9.73-2.91-13.84C37.36,26.87,35.19,26.64,33,28Z"/><path class="cls-2" d="M41.9,28c-1.9-3-7-4.93-9.76-2.79-4.68,3.58-9.58,3.43-14.36,0a5.15,5.15,0,0,0-4.61-.72,8.77,8.77,0,0,0-5.86,4.84A23.2,23.2,0,0,0,5.16,42.27a7,7,0,0,0,4.67,6.05l1.7.68h27c3.08-1.08,5.64-2.75,6.24-6.23a20.22,20.22,0,0,0,.11-4.67A20.75,20.75,0,0,0,41.9,28Zm-.05,14.76c-.38,2.2-2.26,3.27-4.45,3.31-4.12.09-8.24,0-12.36,0v.09c-3.68,0-7.37,0-11.05,0-4.56-.07-6.33-1.9-6.16-6.49C8,36,8.36,32.32,10.76,29.25c1.81-2.32,3.9-2.68,6.3-1.14,5.34,3.42,10.65,3.38,16-.06,2.15-1.4,4.33-1.17,5.91.88C42.11,33,42.7,37.82,41.85,42.75Z"/><path class="cls-2" d="M24.74,24.11a11.65,11.65,0,0,0,11.52-11.6,11.57,11.57,0,0,0-23.13.08A11.66,11.66,0,0,0,24.74,24.11ZM24.62,3.84a8.59,8.59,0,0,1,8.77,8.74,8.7,8.7,0,1,1-17.4,0A8.6,8.6,0,0,1,24.62,3.84Z"/></svg>