<svg id="Layer_2" data-name="Layer 2" xmlns="http://www.w3.org/2000/svg" xmlns:xlink="http://www.w3.org/1999/xlink" viewBox="0 0 50 50"><defs><style>.cls-1{fill:url(#linear-gradient);}.cls-2{fill:#fcfdf8;}.cls-3{fill:url(#linear-gradient-2);}.cls-4{fill:#0F652E;}</style><linearGradient id="linear-gradient" x1="9.08" y1="26.73" x2="16.28" y2="26.73" gradientUnits="userSpaceOnUse"><stop offset="0" stop-color="#fff"/><stop offset="1" stop-color="#d8d9d9"/></linearGradient><linearGradient id="linear-gradient-2" x1="33.68" y1="26.69" x2="40.92" y2="26.69" xlink:href="#linear-gradient"/></defs><title>Untitled-1</title><path class="cls-1" d="M9.08,30.36h7.2V23.1H9.08Z"/><path class="cls-2" d="M28,27.56H22c-.88,0-1.13.25-1.13,1.15q0,5.76,0,11.52v.53h8.18c0-.13,0-.22,0-.31q0-5.95,0-11.9C29.08,27.84,28.79,27.56,28,27.56Z"/><path class="cls-2" d="M34.2,14.41h-.54v2.91h13c.64,0,.79-.16.79-.81q0-.63,0-1.27c0-.69-.14-.83-.81-.83H34.2Z"/><path class="cls-2" d="M5.78,40.23v.6h.55c3.16,0,6.31,0,9.47,0,.39,0,.54-.07.54-.51,0-2.69,0-5.38,0-8.06,0-.14,0-.28,0-.46h-7a1.43,1.43,0,0,1-1.64-1.63q0-3.44,0-6.89a1.41,1.41,0,0,1,1.6-1.62h7V18.77H5.78c0,.66,0,1.28,0,1.9,0,0,0,0,0,0s0,.28,0,.42C5.78,26.39,5.78,35,5.78,40.23Z"/><path class="cls-2" d="M16.26,14.43H11.85l-8.52,0c-.77,0-.89.12-.89.91q0,.54,0,1.08c0,.83.1.92.91.92l12.46,0,.46,0Z"/><path class="cls-2" d="M44.17,19.39c0-.2,0-.4,0-.64H33.68v2.88h7c1.16,0,1.68.53,1.68,1.7q0,3.4,0,6.8a1.43,1.43,0,0,1-1.63,1.64h-7v9H44.2c0-.52,0-1,0-1.53,0-.1,0-.2,0-.3C44.19,33.76,44.18,24.56,44.17,19.39Z"/><path class="cls-2" d="M31.35,9.16l-12.8,0c-.71,0-.86.15-.86.84q0,15.12,0,30.24c0,.18,0,.36,0,.55h1.72v-.6q0-5.83,0-11.67a2.21,2.21,0,0,1,2.34-2.36q3.19,0,6.38,0a2.16,2.16,0,0,1,2.19,1.57,3.82,3.82,0,0,1,.11,1q0,5.72,0,11.44v.57h1.75v-.54q0-15.1,0-30.19C32.22,9.29,32.09,9.16,31.35,9.16Z"/><path class="cls-3" d="M40.92,23.07H33.68v7.25h7.24Z"/><path class="cls-4" d="M45.17,37.87a.68.68,0,0,0-1,.67c0,.23,0,.46,0,.69,0,.07,0,.14,0,.21a.69.69,0,0,0,1.32.14,2.11,2.11,0,0,0,.07-.64v-.38A.72.72,0,0,0,45.17,37.87Z"/><path class="cls-4" d="M41.76,13.68a.66.66,0,0,0,.61.71,2.5,2.5,0,0,0,.47,0H44c.68,0,1-.23,1-.69S44.68,13,44,13H42.4A.62.62,0,0,0,41.76,13.68Z"/><path class="cls-4" d="M48.09,40.76c-.33,0-.65,0-1,0h-1.5c0-.76,0-1.45,0-2.13,0,0,0,0,0-.07v.38a2.11,2.11,0,0,1-.07.64.69.69,0,0,1-1.32-.14c0-.07,0-.14,0-.21,0,.51,0,1,0,1.53H33.69v-9h7a1.43,1.43,0,0,0,1.63-1.64q0-3.4,0-6.8c0-1.17-.52-1.69-1.68-1.7h-7V18.75h10.5c0,.24,0,.44,0,.64,0,5.17,0,14.37,0,19.53,0,.1,0,.2,0,.3,0-.23,0-.46,0-.69a.68.68,0,0,1,1-.67.72.72,0,0,1,.43.69c0-5.25,0-14.14,0-19.21v-.64c.52,0,1,0,1.45,0a1.93,1.93,0,0,0,1.87-1.87c0-.65,0-1.31,0-2A1.86,1.86,0,0,0,47.23,13c-1.22,0-2.45,0-3.67,0H44c.71,0,1.05.24,1,.72s-.34.69-1,.69h2.68c.67,0,.81.14.81.83q0,.63,0,1.27c0,.65-.15.81-.79.81h-13V14.41h9.18a2.5,2.5,0,0,1-.47,0,.66.66,0,0,1-.61-.71A.62.62,0,0,1,42.4,13H33.63c0-1,0-2,0-3a2,2,0,0,0-2.24-2.26h-7c-2,0-4,0-6,0a1.94,1.94,0,0,0-2,2c0,.49,0,1,0,1.45V13h-.53L3.19,13A2,2,0,0,0,1,15.19q0,.73,0,1.45a2,2,0,0,0,2.14,2.13h1.2c0,.66,0,1.29,0,1.91,0,0,0,0,0,.06s0-.06,0-.09A.66.66,0,0,1,5.09,20a.66.66,0,0,1,.68.64s0,0,0,0,0,0,0,0c0-.62,0-1.24,0-1.9H16.26v2.88h-7a1.41,1.41,0,0,0-1.6,1.62q0,3.44,0,6.89a1.43,1.43,0,0,0,1.64,1.63h7c0,.18,0,.32,0,.46,0,2.69,0,5.38,0,8.06,0,.44-.15.51-.54.51-3.16,0-6.31,0-9.47,0H5.78v-.6c0-5.25,0-13.84,0-19.09,0-.14,0-.29,0-.42,0,.55-.27.86-.72.84s-.65-.3-.67-.82c0,.13,0,.25,0,.38v19.7l-.33,0H1.74a.69.69,0,0,0-.74.68.71.71,0,0,0,.71.72c.15,0,.31,0,.47,0l28.27,0,17.58,0a1,1,0,0,0,1-.49v-.47A1,1,0,0,0,48.09,40.76ZM15.81,17.33l-12.46,0c-.81,0-.91-.1-.91-.92q0-.54,0-1.08c0-.78.12-.9.89-.91l8.52,0h4.42v2.88Zm.47,13H9.08V23.1h7.2ZM29.07,40.78H20.89v-.53q0-5.76,0-11.52c0-.9.24-1.15,1.13-1.15h6c.74,0,1,.28,1,1q0,6,0,11.9C29.1,40.56,29.09,40.65,29.07,40.78Zm3.19,0H30.51v-.57q0-5.72,0-11.44a3.82,3.82,0,0,0-.11-1,2.16,2.16,0,0,0-2.19-1.57q-3.19,0-6.38,0a2.21,2.21,0,0,0-2.34,2.36q0,5.83,0,11.67v.6H17.76c0-.19,0-.37,0-.55,0-10.08,0-6.68,0-16.76,0-.7.15-.84.86-.84l12.8,0c.75,0,.88.13.88.86,0,10.06,0,6.65,0,16.71Zm1.42-17.69h7.24v7.25H33.68Z"/><path class="cls-4" d="M5.05,21.56c.45,0,.7-.29.72-.84,0,0,0,0,0,0A.66.66,0,0,0,5.09,20a.66.66,0,0,0-.71.61s0,.06,0,.09C4.4,21.26,4.63,21.55,5.05,21.56Z"/><path class="cls-2" d="M29.64,12.83H27.18V10.37a.58.58,0,0,0-.57-.57H23.4a.58.58,0,0,0-.57.57v2.46H20.36a.58.58,0,0,0-.57.57v3.21a.57.57,0,0,0,.57.57h2.46v2.47a.57.57,0,0,0,.57.57H26.6a.57.57,0,0,0,.57-.57V17.19h2.46a.57.57,0,0,0,.57-.57V13.41A.58.58,0,0,0,29.64,12.83Z"/></svg>