<svg id="Layer_2" data-name="Layer 2" xmlns="http://www.w3.org/2000/svg" xmlns:xlink="http://www.w3.org/1999/xlink" viewBox="0 0 50 50"><defs><style>.cls-1{fill:url(#linear-gradient);}.cls-2{fill:url(#linear-gradient-2);}.cls-3{fill:#fcfdf8;}.cls-4{fill:url(#linear-gradient-3);}.cls-5{fill:url(#linear-gradient-4);}.cls-6{fill:url(#linear-gradient-5);}.cls-7{fill:url(#linear-gradient-6);}.cls-8{fill:url(#linear-gradient-7);}.cls-9{fill:#e06912;}.cls-10{fill:#0F652E;}</style><linearGradient id="linear-gradient" x1="-5.24" y1="32.5" x2="52.46" y2="32.5" gradientUnits="userSpaceOnUse"><stop offset="0" stop-color="#fff"/><stop offset="1" stop-color="#d8d9d9"/></linearGradient><linearGradient id="linear-gradient-2" x1="-5.25" y1="33.11" x2="52.47" y2="33.11" xlink:href="#linear-gradient"/><linearGradient id="linear-gradient-3" x1="-5.25" y1="41.61" x2="52.47" y2="41.61" xlink:href="#linear-gradient"/><linearGradient id="linear-gradient-4" x1="-5.25" y1="41.6" x2="52.47" y2="41.6" xlink:href="#linear-gradient"/><linearGradient id="linear-gradient-5" x1="-5.25" y1="23.29" x2="52.47" y2="23.29" xlink:href="#linear-gradient"/><linearGradient id="linear-gradient-6" x1="-5.25" y1="32.46" x2="52.47" y2="32.46" xlink:href="#linear-gradient"/><linearGradient id="linear-gradient-7" x1="-5.25" y1="23.28" x2="52.47" y2="23.28" xlink:href="#linear-gradient"/></defs><title>Untitled-1</title><path class="cls-1" d="M10.23,30.72H6.65v3.53H8.86c.43,0,1.05.14,1.25-.09s.11-.85.12-1.29C10.24,32.15,10.23,31.44,10.23,30.72Z"/><path class="cls-2" d="M17.35,33.79H32.66V32.42H17.35Z"/><path class="cls-3" d="M25.75,47.58h5.52V35.24H25.75Zm1.39-7a.62.62,0,0,1,.66-.6.61.61,0,0,1,.7.6,11.9,11.9,0,0,1,0,1.64.61.61,0,0,1-.67.58.62.62,0,0,1-.67-.58,6.62,6.62,0,0,1,0-.84h0A6.9,6.9,0,0,1,27.14,40.6Z"/><path class="cls-4" d="M6.66,43.36h3.55V39.85H6.66Z"/><path class="cls-3" d="M5.24,43.34q0-1.76,0-3.52A1.45,1.45,0,0,1,6.6,38.42c.23,0,.47,0,.7,0h2.91V35.68l-.53,0c-1,0-1.91,0-2.86,0A1.48,1.48,0,0,1,5.23,34c0-1,0-2.09,0-3.14a1.46,1.46,0,0,1,1.61-1.59H10.2V26.47H9.67c-.94,0-1.87,0-2.81,0a1.5,1.5,0,0,1-1.63-1.64q0-1.57,0-3.14a1.46,1.46,0,0,1,1.56-1.59h3.43V17.31l-.49,0h-5A2.12,2.12,0,0,0,2.4,19.64V47.56h7.8V44.79c-1.18,0-2.34,0-3.49,0A1.44,1.44,0,0,1,5.24,43.34Z"/><path class="cls-5" d="M43.36,39.85H39.76v3.5h3.59Z"/><path class="cls-6" d="M6.63,24.69c0,.1,0,.21,0,.34h3.53v-3.5H6.63C6.63,22.61,6.63,23.65,6.63,24.69Z"/><path class="cls-3" d="M39.73,20.11h3.49a1.46,1.46,0,0,1,1.57,1.58c0,1,0,2.09,0,3.14a1.5,1.5,0,0,1-1.63,1.64c-1,0-1.94,0-2.91,0l-.49,0v2.79h.54c1,0,2,0,3,0a1.41,1.41,0,0,1,1.44,1.37c0,1.19,0,2.38,0,3.56a1.42,1.42,0,0,1-1.45,1.42c-.76,0-1.53,0-2.3,0H39.76v2.76h3.5a1.45,1.45,0,0,1,1.52,1.45c0,1.16,0,2.31,0,3.47a1.45,1.45,0,0,1-1.48,1.45c-.47,0-.94,0-1.41,0H39.76v2.79h7.82c0-.13,0-.24,0-.35q0-13.88,0-27.76a2.08,2.08,0,0,0-2.18-2.18c-1,0-4.48,0-5.69,0v2.82Z"/><path class="cls-3" d="M36.17,10.71c-.58,0-1.16,0-1.73,0-.36,0-.48.11-.52.46a9,9,0,0,1-17.83,0c0-.32-.13-.47-.48-.45-.51,0-1,0-1.55,0a2.14,2.14,0,0,0-2.42,2.42q0,17,0,33.94c0,.17,0,.33,0,.51h5.65V47.1q0-1.71,0-3.42c0-.59.26-.9.72-.89s.68.32.68.88c0,1.16,0,2.31,0,3.47v.44h5.54V35.25H18.72v.53c0,1.42,0,2.84,0,4.27,0,.54-.28.86-.72.85s-.68-.32-.68-.84q0-1.94,0-3.89v-.91c-1-.13-1.4-.58-1.41-1.52,0-.49,0-1,0-1.45A1.24,1.24,0,0,1,17.19,31H32.8a1.25,1.25,0,0,1,1.29,1.31c0,.39,0,.78,0,1.17,0,1.2-.22,1.48-1.37,1.79V47.58h5.59v-.34q0-17.18,0-34.36A2.08,2.08,0,0,0,36.17,10.71ZM21.52,40.59a.61.61,0,0,1,.67-.58.62.62,0,0,1,.68.57,6.55,6.55,0,0,1,0,.84h0a6.87,6.87,0,0,1,0,.79.63.63,0,0,1-.7.61.61.61,0,0,1-.66-.6A12.94,12.94,0,0,1,21.52,40.59Zm.6-12.4c-1,0-2.06,0-3.09,0H16a1.46,1.46,0,0,1-1.56-1.55c0-1.12,0-2.25,0-3.37a1.42,1.42,0,0,1,1.46-1.44q3.09,0,6.18,0a1.43,1.43,0,0,1,1.46,1.45c0,1.14,0,2.28,0,3.42A1.45,1.45,0,0,1,22.12,28.18Zm13.39-1.56A1.46,1.46,0,0,1,34,28.19H28a1.47,1.47,0,0,1-1.55-1.56c0-1.09,0-2.19,0-3.28a1.46,1.46,0,0,1,1.53-1.53h6a1.46,1.46,0,0,1,1.57,1.58Q35.52,25,35.51,26.63Z"/><path class="cls-7" d="M43.35,30.72h-3.6v3.5h3.6Z"/><path class="cls-8" d="M43.36,21.53H39.75V25h3.61Z"/><path class="cls-3" d="M27.83,26.75h6.25V23.26H27.83Z"/><path class="cls-3" d="M15.91,26.75h6.26v-3.5H15.91Z"/><path class="cls-9" d="M38.77,16.56a.71.71,0,0,0,.76.72h.19c0-.47,0-.93,0-1.4h-.16A.7.7,0,0,0,38.77,16.56Z"/><path class="cls-10" d="M45.63,15.89c-1,0-4.67,0-5.9,0,0,.47,0,.93,0,1.4,1.21,0,4.72,0,5.69,0a2.08,2.08,0,0,1,2.18,2.18q0,13.88,0,27.76c0,.11,0,.21,0,.35H39.76V44.79h2.13c.47,0,.94,0,1.41,0a1.45,1.45,0,0,0,1.48-1.45c0-1.16,0-2.31,0-3.47a1.45,1.45,0,0,0-1.52-1.45h-3.5V35.65H41c.77,0,1.53,0,2.3,0a1.42,1.42,0,0,0,1.45-1.42c0-1.18,0-2.37,0-3.56a1.41,1.41,0,0,0-1.44-1.37c-1,0-2,0-3,0h-.54V26.49l.49,0c1,0,1.94,0,2.91,0a1.5,1.5,0,0,0,1.63-1.64c0-1,0-2.09,0-3.14a1.46,1.46,0,0,0-1.57-1.58H39.73V17.29h1.11a.7.7,0,1,1,0-1.4H39.73q0-1.44,0-2.87A3.51,3.51,0,0,0,36,9.3c-.55,0-1.09,0-1.64,0-.32,0-.43-.1-.47-.41A8.73,8.73,0,0,0,30,2.55a9,9,0,0,0-14,6.33c0,.12,0,.24-.08.43H13.85a3.49,3.49,0,0,0-3.61,3.51c0,.59,0,1.19,0,1.78,0,1.29,0,1.29-1.29,1.29H4.63A3.49,3.49,0,0,0,1,19.51Q1,33.44,1,47.37A1.64,1.64,0,0,0,2.12,49H47.88A1.85,1.85,0,0,0,49,47.88V18.81c-.06-.16-.12-.32-.17-.47A3.45,3.45,0,0,0,45.63,15.89Zm-5.87,24h3.59v3.5H39.76ZM10.2,47.56H2.4V19.64a2.12,2.12,0,0,1,2.34-2.35h5l.49,0v2.79H6.78a1.46,1.46,0,0,0-1.56,1.59q0,1.57,0,3.14a1.5,1.5,0,0,0,1.63,1.64c.94,0,1.87,0,2.81,0h.53v2.81H6.82a1.46,1.46,0,0,0-1.61,1.59c0,1,0,2.09,0,3.14a1.48,1.48,0,0,0,1.59,1.63c1,0,1.91,0,2.86,0l.53,0v2.74H7.3c-.23,0-.47,0-.7,0a1.45,1.45,0,0,0-1.37,1.41q0,1.76,0,3.52a1.44,1.44,0,0,0,1.48,1.44c1.15,0,2.31,0,3.49,0Zm0-26V25H6.66c0-.13,0-.24,0-.34,0-1,0-2.08,0-3.15Zm0,21.82H6.66V39.85h3.55Zm-.1-9.2c-.2.22-.82.08-1.25.09H6.65V30.72h3.58c0,.73,0,1.44,0,2.15C10.22,33.31,10.34,33.9,10.11,34.16ZM31.26,47.58H25.75V35.24h5.52Zm1.4-13.78H17.35V32.42H32.66Zm5.66,13.79H32.73V35.27c1.16-.3,1.37-.59,1.37-1.79,0-.39,0-.78,0-1.17A1.25,1.25,0,0,0,32.8,31H17.19a1.24,1.24,0,0,0-1.28,1.27c0,.48,0,1,0,1.45,0,.94.4,1.39,1.41,1.52v.91q0,1.94,0,3.89c0,.52.26.83.68.84s.72-.31.72-.85c0-1.42,0-2.85,0-4.27v-.53h5.54V47.57H18.72v-.44c0-1.16,0-2.31,0-3.47,0-.56-.25-.87-.68-.88s-.72.3-.72.89q0,1.71,0,3.42v.48H11.67c0-.18,0-.34,0-.51q0-17,0-33.94a2.14,2.14,0,0,1,2.42-2.42c.51,0,1,0,1.55,0,.36,0,.44.13.48.45a9,9,0,0,0,17.83,0c0-.35.16-.48.52-.46.58,0,1.16,0,1.73,0a2.08,2.08,0,0,1,2.15,2.17q0,17.18,0,34.36Zm1.43-26h3.61V25H39.75Zm0,9.18h3.6v3.5h-3.6Z"/><path class="cls-10" d="M22.13,21.82q-3.09,0-6.18,0a1.42,1.42,0,0,0-1.46,1.44c0,1.12,0,2.25,0,3.37A1.46,1.46,0,0,0,16,28.19h3c1,0,2.06,0,3.09,0a1.45,1.45,0,0,0,1.48-1.49c0-1.14,0-2.28,0-3.42A1.43,1.43,0,0,0,22.13,21.82Zm0,4.93H15.91v-3.5h6.26Z"/><path class="cls-10" d="M33.94,21.82h-6a1.46,1.46,0,0,0-1.53,1.53c0,1.09,0,2.19,0,3.28A1.47,1.47,0,0,0,28,28.19h6a1.46,1.46,0,0,0,1.55-1.56q0-1.62,0-3.23A1.46,1.46,0,0,0,33.94,21.82Zm.13,4.93H27.83V23.26h6.25Z"/><path class="cls-10" d="M22.17,42.82a.63.63,0,0,0,.7-.61,6.87,6.87,0,0,0,0-.79h0a6.55,6.55,0,0,0,0-.84.62.62,0,0,0-.68-.57.61.61,0,0,0-.67.58,12.94,12.94,0,0,0,0,1.63A.61.61,0,0,0,22.17,42.82Z"/><path class="cls-10" d="M27.13,41.4a6.62,6.62,0,0,0,0,.84.62.62,0,0,0,.67.58.61.61,0,0,0,.67-.58,11.9,11.9,0,0,0,0-1.64.61.61,0,0,0-.7-.6.62.62,0,0,0-.66.6,6.9,6.9,0,0,0,0,.79Z"/><path class="cls-3" d="M30,8.12H27.39V5.53a.61.61,0,0,0-.6-.6H23.42a.6.6,0,0,0-.6.6V8.12H20.23a.6.6,0,0,0-.6.6v3.37a.61.61,0,0,0,.6.6h2.59v2.59a.6.6,0,0,0,.6.6h3.37a.61.61,0,0,0,.6-.6V12.69H30a.61.61,0,0,0,.6-.6V8.72A.6.6,0,0,0,30,8.12Z"/></svg>