<?xml version="1.0" encoding="utf-8"?>
<!-- Generator: Adobe Illustrator 21.0.2, SVG Export Plug-In . SVG Version: 6.00 Build 0)  -->
<svg version="1.1" id="Layer_1" xmlns="http://www.w3.org/2000/svg" xmlns:xlink="http://www.w3.org/1999/xlink" x="0px" y="0px"
	 viewBox="0 0 460 434" style="enable-background:new 0 0 460 434;" xml:space="preserve">
<style type="text/css">
	.st0{fill:#FFFFFF;}
	.st1{fill-rule:evenodd;clip-rule:evenodd;fill:#416326;}
	.st2{fill:#416326;}
</style>
<path class="st2" d="M149.4,427.3c-3.5,0-6.9,0-10.4-0.1c-24.2-0.3-38.7-14.8-38.8-38.8c-0.1-28.6-0.1-57.1,0-85.7l0-41.8L59,261
	c-8.2,0-16.3,0-24.5-0.1c-18-0.2-28.9-11-29.1-29c-0.3-32.6-0.3-62.9,0-92.7c0.2-17.2,11.1-28.1,28.7-28.4c8.3-0.1,16.7-0.2,25-0.2
	l41,0.1l0-52.7c0-3.9,0-7.8,0-11.6c0.2-24.2,14.8-38.7,38.8-38.7c21.5-0.1,43.1-0.1,64.6-0.1l85.4,0l21-0.1c4.5,0,8.9,0,13.4,0.1
	c22.7,0.4,37.5,15.3,37.6,38c0.1,19.1,0.1,38.1,0.1,57.2l0,31.3c0,0,35.2-0.1,40.9-0.1c7.7,0,15.5,0,23.2,0.1
	c20,0.3,30.6,10.8,30.7,30.4c0.2,35,0.2,70.5,0,105.6c-0.1,19.6-10.7,30.1-30.7,30.4c-7.7,0.1-15.4,0.1-23.1,0.1
	c-5.6,0-41-0.1-41-0.1l0,29.5c0,18.4,0,36.8,0,55.2c0,28.1-13.6,41.7-41.5,41.8L149.4,427.3z M315.2,403.1c3.3,0,7.2,0,11-0.3
	c4.6-0.3,10.2-2.3,10.8-10.1c0.6-7.2,0.4-14.5,0.3-22.1c0-2-0.1-4-0.1-6H123.9l0,20.1c0,15.5,2.9,18.4,18.2,18.4
	c25.2,0,50.4,0,75.6,0l90.3,0L315.2,403.1z M336.6,338.9v-32.6l-6.1,4.1c-9.4,6.3-18.5,12.4-27.7,18.2c-3.5,2.3-6.9,3.4-9.8,3.4
	c-2.5,0-10.8-1-11.2-14.5c-0.1-4.4-0.1-8.8-0.1-13.7l0-3l-3.2,0c-1.3,0-2.6,0-3.8,0c-22-0.3-32.2-10.7-32.3-32.6
	c-0.1-34-0.1-67.9,0-101.9c0.1-20.9,10.5-31.6,31-32c5.3-0.1,10.7-0.1,16-0.1l24.5,0.1h22.7V95.9H124.5v14.9l39.3-0.1
	c9.1,0,18.1,0,27.2,0.2c16.6,0.3,27.4,11.1,27.6,27.4c0.3,30.6,0.4,62.4,0,94.5c-0.2,16.5-11.2,27.5-28,28c-1.8,0.1-3.7,0.1-5.5,0.1
	l-5.6,0c0,1.1,0,2.2,0,3.2c0,5.2,0.1,10.1-0.1,15c-0.4,9.7-6.4,13.1-11.4,13.1c-2.5,0-5.3-0.8-8.1-2.3c-2.2-1.2-4.2-2.6-6.1-3.9
	c-0.9-0.6-1.8-1.3-2.7-1.9l-26.5-17.4v72.1H336.6z M277.5,276.4c4.6,0,9.2,0,13.8,0.1c4.8,0,8.5,1.4,11,3.9
	c2.4,2.5,3.6,6.1,3.5,10.5c-0.1,2.2-0.1,4.4-0.1,7c1-0.7,2-1.3,3-2c6.7-4.4,12.6-8.1,18.2-12.3c6.8-5,14.1-7.3,23.2-7.3l0.8,0
	c9.4,0.1,18.8,0.2,28.2,0.2l28.6,0c5.7,0,11.5,0,17.2,0.1c0,0,0,0,0,0c2.9,0,4.8-0.5,5.7-1.4c0.9-0.9,1.3-2.7,1.3-5.3
	c-0.1-31.4-0.1-65.6,0-104.7c0-2.7-0.4-4.5-1.3-5.4c-0.8-0.8-2.4-1.2-4.8-1.2c-26.4,0-52.7,0.1-79.1,0.1c-24.9,0-49.8,0-74.6,0
	c-2.2,0-3.8,0.4-4.6,1.2c-1,1-1.2,3.2-1.2,4.8c0,27.7,0,55.4,0,83.1l0,23.3c0,4.2,1.2,5.4,5.3,5.4L277.5,276.4z M78.6,237.1
	c12,0,24,0,35.9,0.2c5.4,0.1,11.4,1.9,16.6,4.9c7.1,4.2,14,8.9,21.3,13.9c1,0.7,2.1,1.4,3.2,2.2c0-2,0-3.7-0.1-5.4
	c-0.3-5.2,0.9-9.2,3.5-11.9c2.5-2.6,6.2-4,11-4c0.6,0,1.1,0,1.7,0.1c1.4,0.1,2.8,0.1,4.2,0.1c1.3,0,6.5-0.1,7.8-0.1
	c1.2,0,2.4,0,3.7,0.1l0.9,0c2.5,0,4.2-0.5,5.1-1.4c1.1-1.1,1.6-3.3,1.6-6.6c-0.2-18.4-0.1-36.7-0.1-55.1c0-10.3,0-20.7,0-31
	c0-8.4-0.2-8.4-8.1-8.4c-24.8,0-49.7,0-74.5,0c-24.8,0-49.7,0-74.5,0c-8.4,0-8.4,0.2-8.4,8.1c-0.1,28.7-0.1,57.4,0,86.1
	c0,7.9,0.4,8.3,8.3,8.3L78.6,237.1z M337.3,70.4l0-20.4c0-15.1-3.1-18.1-18.5-18.2l-74.7,0l-101.9,0c-2.8,0-5,0-7.2,0.3
	c-6.7,0.7-10.3,4.2-10.7,10.3c-0.5,7.2-0.4,14.5-0.3,22.1c0,1.9,0.1,3.9,0.1,5.9H337.3z"/>
<path class="st2" d="M373.5,241.2c-0.2,2.5-0.4,4-0.5,5.4c-0.6,18-0.6,18.1-18.2,18.1c-5.2,0-10.5,0.1-15.7,0
	c-11.6-0.1-13.4-2-13.6-13.5c0-3,0-6,0-8.6c-1.4-0.7-1.9-1.2-2.4-1.2c-20.3-0.5-21.4,1.8-21.1-22.9c0.3-27.9-1.3-23.6,22.4-25.6
	c0.3-0.5,0.9-1,0.9-1.5c0.5-19.9-2.5-21.8,22.7-21.3c0.3,0,0.6,0,0.9,0c22.7,0,22.7,0,24.9,23.5c3.7,0,7.6,0.1,11.5,0
	c7.6-0.2,11.5,3.3,11.4,11.1c-0.1,8,0.1,16,0,24.1c-0.2,10.3-2.3,12.2-12.7,12.4C380.7,241.3,377.6,241.2,373.5,241.2z M342,186.3
	c-2,20.7-2,20.7-23.7,24.3c0,4.7,0,9.4,0,14.1c20.6,1.9,20.6,1.9,24.1,23.7c4.7,0,9.4,0,14.1,0c1.9-20.6,1.9-20.6,23.7-24.1
	c0-4.7,0-9.4,0-14.1c-20.6-1.9-20.6-1.9-24.2-23.9C351.6,186.3,347.1,186.3,342,186.3z"/>
<path class="st2" d="M49.2,192.9c0-4.9,0-9.1,0-14c41.7,0,83.2,0,125.3,0c0,4.5,0,8.9,0,14C133.1,192.9,91.6,192.9,49.2,192.9z"/>
<path class="st2" d="M143.3,210.5c0,4.9,0,9.2,0,14c-31.2,0-62.2,0-93.7,0c0-4.5,0-8.9,0-14C80.5,210.5,111.4,210.5,143.3,210.5z"/>
<path class="st2" d="M174.9,147.2c0,5.1,0,9.3,0,14.2c-25.9,0-51.7,0-77.9,0c0-4.8,0-9.2,0-14.2C123,147.2,148.5,147.2,174.9,147.2z
	"/>
<path class="st2" d="M80.1,147.2c0,5,0,9.3,0,14.2c-4.9,0-9.6,0-14.9,0c0-4.7,0-9.1,0-14.2C70.2,147.2,74.7,147.2,80.1,147.2z"/>
<path class="st2" d="M237.7,376.2c0,5.3,0,9.8,0,14.8c-4.7,0-8.9,0-14,0c0-4.7,0-9.4,0-14.8C228.1,376.2,232.6,376.2,237.7,376.2z"
	/>
<path class="st2" d="M254.1,44.2c0,5.2,0,9.4,0,14.4c-5,0-9.7,0-15,0c0-4.8,0-9.3,0-14.4C243.9,44.2,248.6,44.2,254.1,44.2z"/>
<path class="st2" d="M207.3,58.7c0-5,0-9.5,0-14.5c4.8,0,9.3,0,14.6,0c0,4.5,0,9.2,0,14.5C217.2,58.7,212.5,58.7,207.3,58.7z"/>
</svg>
