<svg id="Layer_2" data-name="Layer 2" xmlns="http://www.w3.org/2000/svg" viewBox="0 0 50 50"><defs><style>.cls-1{fill:#416326;fill-rule:evenodd;}</style></defs><title>Untitled-1</title><path class="cls-1" d="M1,28.23a13.19,13.19,0,0,1,.76-2.09A5.84,5.84,0,0,1,7,23c1,0,2,0,2.95,0a2,2,0,1,1,0,4H7.09a2,2,0,0,0-2.08,2Q5,34,5,38.95A2,2,0,0,0,7.22,41H42.69A2,2,0,0,0,45,38.71q0-4.71,0-9.42A2,2,0,0,0,42.71,27H40a2,2,0,0,1-2-1.86A1.89,1.89,0,0,1,39.77,23a24.28,24.28,0,0,1,4.25.07,5.89,5.89,0,0,1,4.88,4.81,2.06,2.06,0,0,0,.1.3V39.76a1.45,1.45,0,0,0-.09.26,6,6,0,0,1-4.31,4.77c-.28.09-.57.15-.85.22H6.25A1.21,1.21,0,0,0,6,44.93,5.72,5.72,0,0,1,1.84,42,14.89,14.89,0,0,1,1,39.76Z"/><path class="cls-1" d="M20,19v-.63c0-3.51,0-7,0-10.54A2.66,2.66,0,0,1,22.88,5c1.47.06,2.94,0,4.4,0A2.51,2.51,0,0,1,30,7.73q0,5.34,0,10.68V19h.55c1.59,0,3.19,0,4.78,0a1.52,1.52,0,0,1,1.15,2.66L26.21,32.41a1.51,1.51,0,0,1-2.44,0L13.55,21.69A1.52,1.52,0,0,1,14.7,19c1.58,0,3.15,0,4.73,0Z"/></svg>