<svg id="Layer_2" data-name="Layer 2" xmlns="http://www.w3.org/2000/svg" viewBox="0 0 50 50"><defs><style>.cls-1{fill:#fff;}.cls-2{fill:#416326;}</style></defs><title>Untitled-1</title><path class="cls-1" d="M19.88,7.15h-.14a12.66,12.66,0,0,0,0,25.33h.13a12.66,12.66,0,0,0,0-25.33Zm8.26,9.33a9,9,0,0,0-6.34-5.39,8.8,8.8,0,0,0-1.39-.19l-.63-.06a1.22,1.22,0,0,1,.06-2.44h.39a11.41,11.41,0,0,1,10.15,7.12,1.45,1.45,0,0,1,.07,1.13,1.16,1.16,0,0,1-.64.64,1.29,1.29,0,0,1-.49.1A1.32,1.32,0,0,1,28.14,16.49ZM30,21h0a1.24,1.24,0,0,1-1.21-1.19A1.25,1.25,0,0,1,30,18.6h0a1.25,1.25,0,0,1,1.24,1.2A1.24,1.24,0,0,1,30,21Z"/><polygon class="cls-1" points="34.23 32.2 32.16 34.24 34.26 36.33 36.34 34.32 34.23 32.2"/><path class="cls-1" d="M19.84,3.45l0-.3v.3a16.37,16.37,0,1,0,16.4,16.4A16.38,16.38,0,0,0,19.79,3.45Zm0,31.48h0A15.09,15.09,0,1,1,34.93,19.83,15,15,0,0,1,19.81,34.93Z"/><path class="cls-1" d="M42.33,40.13,38.22,36,36,38.21l7.73,7.73a3.77,3.77,0,0,0,.32.28,1.55,1.55,0,0,0,1,.33,1.54,1.54,0,0,0,1.09-.46A1.55,1.55,0,0,0,46,43.8Z"/><path class="cls-2" d="M35.87,30.21,35.65,30a18.81,18.81,0,1,0-31.54.12,18.2,18.2,0,0,0,10,7.6,19.39,19.39,0,0,0,5.78.92,19.21,19.21,0,0,0,10.1-3,2.22,2.22,0,0,0,.2.22L41.9,47.56c.22.21.44.42.68.61A3.78,3.78,0,0,0,45,49a4,4,0,0,0,3.79-2.64A4,4,0,0,0,47.65,42Zm-16,6a16.37,16.37,0,0,1,0-32.74v-.3l0,.3a16.37,16.37,0,0,1,0,32.74Zm12.33-2,2.08-2,2.1,2.11-2.07,2ZM46.11,46.1a1.54,1.54,0,0,1-1.09.46,1.55,1.55,0,0,1-1-.33,3.77,3.77,0,0,1-.32-.28L36,38.21,38.22,36l4.11,4.11L46,43.8A1.55,1.55,0,0,1,46.11,46.1Z"/><path class="cls-2" d="M30.5,9.16A15.09,15.09,0,1,0,19.81,34.93h0a15.13,15.13,0,0,0,15.1-15.11A15,15,0,0,0,30.5,9.16ZM19.89,32.48h-.13a12.66,12.66,0,0,1,0-25.33h.14a12.66,12.66,0,0,1,0,25.33Z"/><path class="cls-2" d="M29.8,17.29a1.16,1.16,0,0,0,.64-.64,1.45,1.45,0,0,0-.07-1.13A11.41,11.41,0,0,0,20.24,8.41h-.39a1.22,1.22,0,0,0-.06,2.44l.63.06a8.8,8.8,0,0,1,1.39.19,9,9,0,0,1,6.34,5.39,1.32,1.32,0,0,0,1.18.91A1.29,1.29,0,0,0,29.8,17.29Z"/><path class="cls-2" d="M30,18.6h0a1.25,1.25,0,0,0-1.19,1.24A1.24,1.24,0,0,0,30,21h0a1.24,1.24,0,0,0,1.19-1.24A1.25,1.25,0,0,0,30,18.6Z"/></svg>