<svg id="Layer_2" data-name="Layer 2" xmlns="http://www.w3.org/2000/svg" viewBox="0 0 50 50"><defs><style>.cls-1{fill:#fcfdf8;}.cls-2{fill:#416326;}</style></defs><title>Untitled-1</title><path class="cls-1" d="M16.07,26.72q-2.31,5.75-4.63,11.51l.44.41L23.38,34A11.31,11.31,0,0,0,16.07,26.72Z"/><path class="cls-1" d="M42.89,4.75,4.14,17.68,21.5,26.15Z"/><path class="cls-1" d="M24,28.63,32.4,45.94,45.28,7.32Z"/><path class="cls-2" d="M47.5,1.07h-3C39.44,2.82,34.4,4.6,29.33,6.31c-8.22,2.77-16.47,5.44-24.66,8.3-1.36.47-2.46,1.71-3.68,2.6v1.12A25.94,25.94,0,0,0,4.48,21c2.94,1.56,6,2.93,9.06,4.4-.3.79-.51,1.37-.74,1.94-1.23,3.06-2.62,6.08-3.62,9.21a5.2,5.2,0,0,0,.38,3.82c.82,1.39,2.52,1.07,3.93.65.72-.21,1.39-.55,2.08-.83l9.06-3.63c.31.55.56,1,.77,1.41,1.38,2.86,2.73,5.74,4.13,8.6.62,1.26,1.52,2.74,3,2.3,1.08-.32,1.85-1.74,2.74-2.69a1.47,1.47,0,0,0,.2-.52Q42,26,48.6,6.28C49.27,4.28,49.22,2.52,47.5,1.07ZM4.14,17.68,42.89,4.75,21.5,26.15Zm7.74,21-.44-.41q2.32-5.75,4.63-11.51A11.31,11.31,0,0,1,23.38,34ZM32.4,45.94,24,28.63,45.28,7.32Z"/></svg>