<svg height="512pt" viewBox="0 0 512 512" width="512pt" xmlns="http://www.w3.org/2000/svg"><path d="m509.832031 359.261719.015625-.007813c-1.019531-1.683594-25.648437-41.253906-92.847656-41.253906-50.261719 0-76.707031 22.136719-87.273438 34h-84.726562c-12.253906 0-23.707031 4.839844-32.253906 13.621094-2.699219 2.773437-4.992188 5.824218-6.863282 9.089844-4.050781 7.078124-6.097656 15.152343-5.867187 23.542968.664063 24.121094 21.121094 43.746094 45.605469 43.746094h90.378906c8.285156 0 15 6.714844 15 15s-6.714844 15-15 15h-90.375c-40.582031 0-74.492188-32.714844-75.597656-72.925781-.378906-13.894531 2.992187-27.269531 9.667968-39.015625l-35.203124-19.691406c-11.398438-6.378907-25.121094-7.910157-37.636719-4.203126-12.394531 3.671876-22.503907 11.929688-28.46875 23.25-5.832031 11.070313-7.089844 23.769532-3.542969 35.765626 3.542969 11.984374 11.496094 21.953124 22.394531 28.070312l141.015625 79.152344c11.1875 6.277344 23.882813 9.597656 36.710938 9.597656h222.035156c8.285156 0 15-6.714844 15-15v-130c0-2.835938-.800781-5.476562-2.167969-7.738281zm0 0"/><path d="m182.273438 160h84.726562c12.253906 0 23.707031-4.839844 32.253906-13.621094 2.699219-2.773437 4.992188-5.824218 6.863282-9.089844 4.050781-7.078124 6.097656-15.152343 5.867187-23.542968-.664063-24.121094-21.121094-43.746094-45.609375-43.746094h-90.375c-8.285156 0-15-6.714844-15-15s6.714844-15 15-15h90.375c40.582031 0 74.492188 32.714844 75.597656 72.925781.378906 13.894531-2.992187 27.269531-9.667968 39.015625l35.203124 19.691406c11.398438 6.378907 25.121094 7.910157 37.636719 4.203126 12.394531-3.671876 22.503907-11.929688 28.46875-23.25 5.832031-11.070313 7.089844-23.769532 3.542969-35.765626-3.542969-11.984374-11.496094-21.953124-22.394531-28.070312l-141.015625-79.152344c-11.1875-6.277344-23.882813-9.597656-36.710938-9.597656h-222.035156c-8.285156 0-15 6.714844-15 15v130c0 2.835938.800781 5.476562 2.167969 7.738281l-.015625.007813c1.019531 1.683594 25.648437 41.253906 92.847656 41.253906 50.261719 0 76.707031-22.136719 87.273438-34zm0 0"/><path d="m256 201.457031c-17.644531-15.800781-44.867188-15.226562-61.820312 1.722657-17.542969 17.546874-17.542969 46.09375.046874 63.683593l51.210938 50.789063c2.921875 2.898437 6.742188 4.347656 10.5625 4.347656s7.640625-1.449219 10.5625-4.347656l51.257812-50.832032c17.546876-17.546874 17.546876-46.09375 0-63.640624-16.953124-16.949219-44.175781-17.523438-61.820312-1.722657zm0 0"/></svg>