<?xml version="1.0" encoding="utf-8"?>
<!-- Generator: Adobe Illustrator 21.0.2, SVG Export Plug-In . SVG Version: 6.00 Build 0)  -->
<svg version="1.1" id="Layer_1" xmlns="http://www.w3.org/2000/svg" xmlns:xlink="http://www.w3.org/1999/xlink" x="0px" y="0px"
	 viewBox="0 0 314 424" style="enable-background:new 0 0 314 424;" xml:space="preserve">
<style type="text/css">
	.st0{fill:#FFFFFF;}
	.st1{fill-rule:evenodd;clip-rule:evenodd;fill:#416326;}
	.st2{fill:#416326;}
</style>
<g>
	<path class="st2" d="M267.3,413.9c-18.1-0.6-36.3-1.5-53.8-2.4c-7.4-0.4-14.7-0.7-22.1-1.1l-46.2-2.2c-37.1-1.7-74.3-3.5-111.4-5.1
		l-0.5,0c-19.4-0.9-22.9-1-22.3-15.8c0.1-2.1,0.2-4.6,0.2-7.5c-0.1-83.5-0.1-166.9-0.1-250.4l0-80.1c0-13.5,2.3-14.9,15-16.2
		c34.7-3.6,69.3-7.4,103.9-11.1l34-3.7c8-0.9,16-1.8,24.1-2.6c17.1-1.9,34.7-3.9,52.1-5.5c1.1-0.1,2.2-0.2,3.2-0.2
		c17.9,0,33,14.7,34.3,33.4c0.2,2.9,0.7,3.3,2.9,4.2c15.3,5.7,23.1,17.4,23.1,34.8c0,62.2,0,152.2,0,225.4l0,50.4c0,0.3,0,0.6,0,0.9
		c0.1,1,0.1,2.1,0,3.1c0.3,8.3,0.1,15-0.5,21.3c-1.6,17-16.9,30.3-34.9,30.3L267.3,413.9z M180,391.6c9.9,0.5,19.8,0.9,29.7,1.3
		c18.4,0.8,36.8,1.6,55.2,2.6c0.6,0,1.3,0,1.9,0c12.7,0,19.2-6.9,19.2-20.6c0-2,0-4,0-6c0-2.5-0.1-5,0-7.6c-0.2-1.3-0.1-2.6,0-4
		c0-0.7,0.1-1.3,0.1-1.8c0,0,0-218.9,0-272c0-8.8-2.3-13.8-8.1-16.8l0,270.4c0,26.3-10.9,38.6-36.3,41.4
		c-34.4,3.7-68.8,7.3-103.2,11C152.3,390.3,166.2,391,180,391.6z M29.6,383.1l54.8-5.8c53.2-5.6,106.2-11.3,159.2-17
		c10.9-1.2,16.5-7.8,16.6-19.8c0-3.2,0-6.4,0-9.6l0-59.7l-230.6,25V383.1z M29.5,277.9l230.7-25l0-203.6c0-1.5,0-2.9-0.1-4.3
		c-0.7-9.6-7.9-16.6-17-16.6c-0.5,0-0.9,0-1.4,0.1c-7.2,0.5-14.4,1.3-21.4,2.1L75.2,46.2c-9.7,1.1-37.7,4.1-45.7,5V277.9z"/>
	<path class="st2" d="M55.3,151.3c-0.2-13.9,4.1-28.8,12.3-42.6c2.1-3.6,4.2-8,9.3-5.2c5.7,3.1,2.5,7.2,0.3,11.1
		c-15.5,28.1-15.3,56.1,2.8,82.5c18.1,26.4,44.1,37,74.9,31.3c30.7-5.7,50.9-25.2,59.2-56.3c7.6-28.7-3-60.1-26.6-78
		c-26-19.7-53.8-21.4-82.7-6.6c-4,2.1-8.8,8.4-12.9,1.4c-4.3-7.4,3.5-9.1,7.6-11.4c31.6-18.1,71.6-13.7,98.3,10.3
		c27.7,24.9,37.1,62.8,24,97.2c-13,34.4-46,57-82.2,56.3C92.8,240.5,55.3,201.4,55.3,151.3z"/>
	<path class="st2" d="M110.9,190.6c-3.5,4.2-6.5,8.9-10.5,12.3c-1.7,1.5-5.6,0.3-8.4,0.3c0.3-2.8-0.3-6.3,1.1-8.1
		c3.3-4.1,7.7-7.5,11.4-10.9c-7.4-11.4-7.1-13.1,1.4-22c12.9-13.5,25.7-27.1,39.1-41.2c-0.2-0.3-1.4-1.6-1.5-2.8
		c-0.1-2.5-0.3-6.2,1.1-7.3c1.5-1.2,5.6-1,7.2,0.3c4,3.5,7.2,7.9,10.7,11.9c4.4-4.8,7.6-8.3,11.4-12.4c-1.3-1.4-4.1-3.3-5.2-5.8
		c-1.1-2.5-0.5-5.8-0.6-8.7c2.7,0.2,6.3-0.7,7.9,0.8c7.5,6.9,14.7,14.2,21.5,21.9c1.4,1.6,0.4,5.3,0.5,8c-2.7-0.1-5.8,0.7-8-0.4
		c-2.6-1.2-4.5-4-6.5-6c-3.6,3.7-6.9,7.2-10.2,10.6c-0.9,0.5-1.8,1-2.7,1.5c3.6,2.8,7.4,5.3,10.7,8.3c2.8,2.6,7.6,5.9,3.2,10
		c-2.1,2-7,0.8-10.7,1.1c-0.4-1.1-0.9-2.3-1.3-3.4c-7.9,8.3-15.7,16.7-23.6,24.9c-5.5,5.7-11.1,11.3-16.7,17
		C124.2,198.7,122.6,198.8,110.9,190.6z M155.3,130.3c-14.6,15.2-28.6,29.8-41.8,43.6c2.4,2.8,5.4,6.5,8.3,10
		c14.1-14.9,28.1-29.6,41.6-43.9C161,137.1,157.9,133.4,155.3,130.3z"/>
	<path class="st2" d="M199,297.1c16.4-1.1,27.1,7.2,28.3,19.6c1.3,13.4-7.5,24.3-21.3,25.9c-40.7,4.6-81.3,9.2-122,13.5
		c-19.7,2.1-31.9-12-26.7-30.3c2.4-8.5,7.9-13.8,16.6-14.9c19.8-2.5,39.6-4.6,59.5-6.8C156.2,301.7,179,299.2,199,297.1z
		 M78.1,345.2c14.6-1.6,28.4-3,42.2-4.5c28.3-3.1,56.7-6.1,85-9.3c7.2-0.8,11.1-5.6,10.5-12.5c-0.6-6.9-5-11.2-12.2-10.6
		c-15.1,1.3-30.1,3-45.1,4.7c-27.1,3-54.2,5.9-81.2,9.1c-6.9,0.8-10.7,5.6-10.3,11.9C67.3,340.7,72.1,345.2,78.1,345.2z"/>
</g>
</svg>
