<svg xmlns="http://www.w3.org/2000/svg" version="1.0" preserveAspectRatio="xMidYMid meet" viewBox="7 9.4 85.89 80.9">

<g transform="translate(0.000000,100.000000) scale(0.100000,-0.100000)" stroke="none">
<path d="M760 896 c0 -9 5 -16 10 -16 6 0 10 4 10 9 0 6 -4 13 -10 16 -5 3 -10 -1 -10 -9z"/>
<path d="M195 889 c-10 -15 3 -25 16 -12 7 7 7 13 1 17 -6 3 -14 1 -17 -5z"/>
<path d="M419 877 c-121 -46 -190 -137 -192 -257 -1 -67 27 -126 102 -215 28 -33 79 -94 113 -136 l61 -76 46 56 c25 31 76 92 114 136 90 104 120 163 120 235 -2 144 -113 258 -262 267 -40 2 -80 -2 -102 -10z m191 -101 c68 -45 99 -151 66 -229 -23 -57 -111 -117 -171 -117 -32 0 -90 25 -122 53 -109 96 -72 273 66 318 43 14 121 2 161 -25z"/>
<path d="M500 741 c0 -6 8 -11 18 -11 34 0 81 -38 90 -73 14 -50 4 -83 -35 -117 -39 -34 -80 -39 -123 -13 -27 16 -34 25 -58 83 -11 25 -11 25 -11 -6 -1 -36 28 -78 69 -99 84 -44 180 19 180 116 0 42 -5 55 -32 84 -33 35 -98 59 -98 36z"/>
<path d="M880 700 c0 -5 7 -10 15 -10 8 0 15 5 15 10 0 6 -7 10 -15 10 -8 0 -15 -4 -15 -10z"/>
<path d="M70 670 c0 -5 7 -10 15 -10 8 0 15 5 15 10 0 6 -7 10 -15 10 -8 0 -15 -4 -15 -10z"/>
<path d="M850 509 c-14 -25 -8 -44 19 -58 15 -8 24 -7 42 8 21 16 22 22 11 45 -15 33 -56 36 -72 5z"/>
<path d="M162 501 c4 -13 18 -16 19 -4 0 4 -5 9 -11 12 -7 2 -11 -2 -8 -8z"/>
<path d="M115 376 c-20 -15 -15 -43 10 -52 18 -7 45 12 45 32 0 22 -35 35 -55 20z"/>
<path d="M314 301 c-110 -50 -109 -123 2 -172 92 -41 278 -43 371 -4 50 21 93 63 93 91 0 30 -43 70 -97 90 l-46 18 -39 -45 c-22 -24 -51 -61 -66 -83 -25 -37 -26 -38 -42 -18 -71 93 -114 142 -123 142 -7 0 -30 -9 -53 -19z"/>
<path d="M852 239 c2 -6 8 -10 13 -10 5 0 11 4 13 10 2 6 -4 11 -13 11 -9 0 -15 -5 -13 -11z"/>
<path d="M136 143 c-11 -11 -6 -23 9 -23 8 0 15 4 15 9 0 13 -16 22 -24 14z"/>
</g>
</svg>